<?xml version="1.0" encoding="UTF-8" standalone="no"?>
<!DOCTYPE svg PUBLIC "-//W3C//DTD SVG 1.1//EN"
 "http://www.w3.org/Graphics/SVG/1.1/DTD/svg11.dtd">
<!-- Generated by graphviz version 2.40.1 (20161225.0304)
 -->
<!-- Title: ipsec.h Pages: 1 -->
<svg width="1866pt" height="968pt"
 viewBox="0.00 0.00 1866.00 968.00" xmlns="http://www.w3.org/2000/svg" xmlns:xlink="http://www.w3.org/1999/xlink">
<g id="graph0" class="graph" transform="scale(1 1) rotate(0) translate(4 964)">
<title>ipsec.h</title>
<polygon fill="#ffffff" stroke="transparent" points="-4,4 -4,-964 1862,-964 1862,4 -4,4"/>
<!-- Node0 -->
<g id="node1" class="node">
<title>Node0</title>
<polygon fill="#bfbfbf" stroke="#000000" points="532,-940.5 532,-959.5 580,-959.5 580,-940.5 532,-940.5"/>
<text text-anchor="middle" x="556" y="-947.5" font-family="Helvetica,sans-Serif" font-size="10.00" fill="#000000">ipsec.h</text>
</g>
<!-- Node1 -->
<g id="node2" class="node">
<title>Node1</title>
<g id="a_node2"><a xlink:href="visibility__begin_8h_source.html" target="_top" xlink:title="odp/visibility_begin.h">
<polygon fill="#ffffff" stroke="#000000" points="416.5,-.5 416.5,-19.5 523.5,-19.5 523.5,-.5 416.5,-.5"/>
<text text-anchor="middle" x="470" y="-7.5" font-family="Helvetica,sans-Serif" font-size="10.00" fill="#000000">odp/visibility_begin.h</text>
</a>
</g>
</g>
<!-- Node0&#45;&gt;Node1 -->
<g id="edge1" class="edge">
<title>Node0&#45;&gt;Node1</title>
<path fill="none" stroke="#191970" d="M531.8172,-948.963C450.9691,-945.2684 190.7492,-931.4764 112,-904 56.2402,-884.5448 0,-891.5564 0,-832.5 0,-832.5 0,-832.5 0,-133 0,-91.952 15.9536,-77.3702 51,-56 80.6209,-37.9381 296.2699,-21.3941 406.0918,-14.0301"/>
<polygon fill="#191970" stroke="#191970" points="406.6337,-17.5019 416.3796,-13.3464 406.1695,-10.5173 406.6337,-17.5019"/>
</g>
<!-- Node2 -->
<g id="node3" class="node">
<title>Node2</title>
<g id="a_node3"><a xlink:href="api_2crypto_8h.html" target="_top" xlink:title="ODP crypto. ">
<polygon fill="#ffffff" stroke="#000000" points="1184,-705.5 1184,-724.5 1270,-724.5 1270,-705.5 1184,-705.5"/>
<text text-anchor="middle" x="1227" y="-712.5" font-family="Helvetica,sans-Serif" font-size="10.00" fill="#000000">odp/api/crypto.h</text>
</a>
</g>
</g>
<!-- Node0&#45;&gt;Node2 -->
<g id="edge2" class="edge">
<title>Node0&#45;&gt;Node2</title>
<path fill="none" stroke="#191970" d="M580.202,-944.6648C658.8017,-926.9142 913.2449,-866.1138 1111,-781 1144.6701,-766.5084 1181.0257,-744.7224 1203.889,-730.192"/>
<polygon fill="#191970" stroke="#191970" points="1206.0098,-732.9895 1212.5285,-724.6373 1202.2242,-727.1014 1206.0098,-732.9895"/>
</g>
<!-- Node10 -->
<g id="node11" class="node">
<title>Node10</title>
<g id="a_node11"><a xlink:href="visibility__end_8h_source.html" target="_top" xlink:title="odp/visibility_end.h">
<polygon fill="#ffffff" stroke="#000000" points="1176,-.5 1176,-19.5 1276,-19.5 1276,-.5 1176,-.5"/>
<text text-anchor="middle" x="1226" y="-7.5" font-family="Helvetica,sans-Serif" font-size="10.00" fill="#000000">odp/visibility_end.h</text>
</a>
</g>
</g>
<!-- Node0&#45;&gt;Node10 -->
<g id="edge113" class="edge">
<title>Node0&#45;&gt;Node10</title>
<path fill="none" stroke="#191970" d="M580.0309,-949.7075C737.4858,-947.7059 1618.9257,-935.1666 1734,-904 1795.4043,-887.3694 1858,-896.1165 1858,-832.5 1858,-832.5 1858,-832.5 1858,-133 1858,-58.4578 1780.515,-77.0272 1709,-56 1631.2214,-33.1312 1397.3308,-18.6458 1286.0691,-12.8662"/>
<polygon fill="#191970" stroke="#191970" points="1286.1821,-9.3674 1276.0159,-12.3503 1285.8233,-16.3582 1286.1821,-9.3674"/>
</g>
<!-- Node31 -->
<g id="node32" class="node">
<title>Node31</title>
<g id="a_node32"><a xlink:href="support_8h.html" target="_top" xlink:title="ODP support API &#45; platform specific header. ">
<polygon fill="#ffffff" stroke="#000000" points="300,-123.5 300,-142.5 392,-142.5 392,-123.5 300,-123.5"/>
<text text-anchor="middle" x="346" y="-130.5" font-family="Helvetica,sans-Serif" font-size="10.00" fill="#000000">odp/api/support.h</text>
</a>
</g>
</g>
<!-- Node0&#45;&gt;Node31 -->
<g id="edge70" class="edge">
<title>Node0&#45;&gt;Node31</title>
<path fill="none" stroke="#191970" d="M531.9368,-949.4818C433.1581,-946.7166 64,-929.8691 64,-832.5 64,-832.5 64,-832.5 64,-603 64,-528.1431 76,-509.8569 76,-435 76,-435 76,-435 76,-317.5 76,-214.7347 210.9835,-165.0539 290.0667,-144.7657"/>
<polygon fill="#191970" stroke="#191970" points="291.0326,-148.1322 299.8921,-142.322 289.343,-141.3391 291.0326,-148.1322"/>
</g>
<!-- Node36 -->
<g id="node37" class="node">
<title>Node36</title>
<g id="a_node37"><a xlink:href="api_2packet__io_8h.html" target="_top" xlink:title="ODP Packet IO. ">
<polygon fill="#ffffff" stroke="#000000" points="505.5,-761.5 505.5,-780.5 606.5,-780.5 606.5,-761.5 505.5,-761.5"/>
<text text-anchor="middle" x="556" y="-768.5" font-family="Helvetica,sans-Serif" font-size="10.00" fill="#000000">odp/api/packet_io.h</text>
</a>
</g>
</g>
<!-- Node0&#45;&gt;Node36 -->
<g id="edge71" class="edge">
<title>Node0&#45;&gt;Node36</title>
<path fill="none" stroke="#191970" d="M556,-940.3762C556,-912.2097 556,-829.5126 556,-791.0713"/>
<polygon fill="#191970" stroke="#191970" points="559.5001,-790.6714 556,-780.6714 552.5001,-790.6714 559.5001,-790.6714"/>
</g>
<!-- Node41 -->
<g id="node42" class="node">
<title>Node41</title>
<g id="a_node42"><a xlink:href="api_2classification_8h.html" target="_top" xlink:title="ODP classification descriptor. ">
<polygon fill="#ffffff" stroke="#000000" points="243,-884.5 243,-903.5 359,-903.5 359,-884.5 243,-884.5"/>
<text text-anchor="middle" x="301" y="-891.5" font-family="Helvetica,sans-Serif" font-size="10.00" fill="#000000">odp/api/classification.h</text>
</a>
</g>
</g>
<!-- Node0&#45;&gt;Node41 -->
<g id="edge89" class="edge">
<title>Node0&#45;&gt;Node41</title>
<path fill="none" stroke="#191970" d="M531.5495,-944.6305C490.9454,-935.7135 408.6942,-917.6505 354.2201,-905.6876"/>
<polygon fill="#191970" stroke="#191970" points="354.9062,-902.2549 344.3882,-903.5284 353.4046,-909.092 354.9062,-902.2549"/>
</g>
<!-- Node45 -->
<g id="node46" class="node">
<title>Node45</title>
<g id="a_node46"><a xlink:href="api_2traffic__mngr_8h.html" target="_top" xlink:title="ODP Traffic manager. ">
<polygon fill="#ffffff" stroke="#000000" points="1614.5,-884.5 1614.5,-903.5 1725.5,-903.5 1725.5,-884.5 1614.5,-884.5"/>
<text text-anchor="middle" x="1670" y="-891.5" font-family="Helvetica,sans-Serif" font-size="10.00" fill="#000000">odp/api/traffic_mngr.h</text>
</a>
</g>
</g>
<!-- Node0&#45;&gt;Node45 -->
<g id="edge106" class="edge">
<title>Node0&#45;&gt;Node45</title>
<path fill="none" stroke="#191970" d="M580.2366,-949.2085C691.3764,-945.5097 1163.4092,-929.0446 1550,-904 1567.6136,-902.8589 1586.6615,-901.3828 1604.2819,-899.9168"/>
<polygon fill="#191970" stroke="#191970" points="1604.7996,-903.3856 1614.47,-899.0574 1604.2111,-896.4104 1604.7996,-903.3856"/>
</g>
<!-- Node3 -->
<g id="node4" class="node">
<title>Node3</title>
<g id="a_node4"><a xlink:href="api_2std__types_8h.html" target="_top" xlink:title="Standard C language types and definitions for ODP. ">
<polygon fill="#ffffff" stroke="#000000" points="1325,-246.5 1325,-265.5 1427,-265.5 1427,-246.5 1325,-246.5"/>
<text text-anchor="middle" x="1376" y="-253.5" font-family="Helvetica,sans-Serif" font-size="10.00" fill="#000000">odp/api/std_types.h</text>
</a>
</g>
</g>
<!-- Node2&#45;&gt;Node3 -->
<g id="edge3" class="edge">
<title>Node2&#45;&gt;Node3</title>
<path fill="none" stroke="#191970" d="M1270.1356,-706.1405C1305.8664,-697.838 1352.5692,-684.4185 1364,-669 1410.7345,-605.9616 1386.3496,-348.9983 1378.2746,-275.6396"/>
<polygon fill="#191970" stroke="#191970" points="1381.7299,-275.0454 1377.1321,-265.5002 1374.7739,-275.8293 1381.7299,-275.0454"/>
</g>
<!-- Node11 -->
<g id="node12" class="node">
<title>Node11</title>
<polygon fill="#ffffff" stroke="#bfbfbf" points="1442,-369.5 1442,-388.5 1546,-388.5 1546,-369.5 1442,-369.5"/>
<text text-anchor="middle" x="1494" y="-376.5" font-family="Helvetica,sans-Serif" font-size="10.00" fill="#000000">odp/api/abi/packet.h</text>
</g>
<!-- Node2&#45;&gt;Node11 -->
<g id="edge14" class="edge">
<title>Node2&#45;&gt;Node11</title>
<path fill="none" stroke="#191970" d="M1270.3365,-707.947C1314.3561,-699.985 1378.5948,-685.9119 1397,-669 1419.9832,-647.8814 1421,-634.2125 1421,-603 1421,-603 1421,-603 1421,-491 1421,-459.7875 1427.82,-451.0589 1445,-425 1452.451,-413.6982 1463.2121,-403.1927 1472.7529,-395.0828"/>
<polygon fill="#191970" stroke="#191970" points="1475.1588,-397.6376 1480.7092,-388.6129 1470.7424,-392.2066 1475.1588,-397.6376"/>
</g>
<!-- Node12 -->
<g id="node13" class="node">
<title>Node12</title>
<polygon fill="#ffffff" stroke="#bfbfbf" points="1253,-649.5 1253,-668.5 1355,-668.5 1355,-649.5 1253,-649.5"/>
<text text-anchor="middle" x="1304" y="-656.5" font-family="Helvetica,sans-Serif" font-size="10.00" fill="#000000">odp/api/abi/crypto.h</text>
</g>
<!-- Node2&#45;&gt;Node12 -->
<g id="edge15" class="edge">
<title>Node2&#45;&gt;Node12</title>
<path fill="none" stroke="#191970" d="M1240.4124,-705.2455C1252.0057,-696.814 1268.9748,-684.4729 1282.4678,-674.6598"/>
<polygon fill="#191970" stroke="#191970" points="1284.7126,-677.355 1290.7413,-668.6427 1280.5953,-671.6938 1284.7126,-677.355"/>
</g>
<!-- Node13 -->
<g id="node14" class="node">
<title>Node13</title>
<polygon fill="#ffffff" stroke="#bfbfbf" points="1096,-369.5 1096,-388.5 1196,-388.5 1196,-369.5 1096,-369.5"/>
<text text-anchor="middle" x="1146" y="-376.5" font-family="Helvetica,sans-Serif" font-size="10.00" fill="#000000">odp/api/abi/buffer.h</text>
</g>
<!-- Node2&#45;&gt;Node13 -->
<g id="edge16" class="edge">
<title>Node2&#45;&gt;Node13</title>
<path fill="none" stroke="#191970" d="M1224.6632,-705.3065C1213.5539,-659.2235 1165.9879,-461.9127 1150.7303,-398.6219"/>
<polygon fill="#191970" stroke="#191970" points="1154.0925,-397.634 1148.3463,-388.7328 1147.2874,-399.2746 1154.0925,-397.634"/>
</g>
<!-- Node14 -->
<g id="node15" class="node">
<title>Node14</title>
<polygon fill="#ffffff" stroke="#bfbfbf" points="582.5,-369.5 582.5,-388.5 675.5,-388.5 675.5,-369.5 582.5,-369.5"/>
<text text-anchor="middle" x="629" y="-376.5" font-family="Helvetica,sans-Serif" font-size="10.00" fill="#000000">odp/api/abi/pool.h</text>
</g>
<!-- Node2&#45;&gt;Node14 -->
<g id="edge17" class="edge">
<title>Node2&#45;&gt;Node14</title>
<path fill="none" stroke="#191970" d="M1183.9919,-710.5927C1113.17,-701.7124 969.635,-676.7574 867,-613 771.3096,-553.5566 782.0472,-498.8725 697,-425 683.7107,-413.4569 667.4178,-402.3454 654.1122,-393.9356"/>
<polygon fill="#191970" stroke="#191970" points="655.7961,-390.8617 645.4514,-388.573 652.111,-396.8132 655.7961,-390.8617"/>
</g>
<!-- Node15 -->
<g id="node16" class="node">
<title>Node15</title>
<g id="a_node16"><a xlink:href="api_2queue_8h.html" target="_top" xlink:title="ODP queue. ">
<polygon fill="#ffffff" stroke="#000000" points="731,-649.5 731,-668.5 817,-668.5 817,-649.5 731,-649.5"/>
<text text-anchor="middle" x="774" y="-656.5" font-family="Helvetica,sans-Serif" font-size="10.00" fill="#000000">odp/api/queue.h</text>
</a>
</g>
</g>
<!-- Node2&#45;&gt;Node15 -->
<g id="edge18" class="edge">
<title>Node2&#45;&gt;Node15</title>
<path fill="none" stroke="#191970" d="M1183.8781,-710.6461C1111.4532,-703.1783 960.8477,-686.9834 834,-669 831.7912,-668.6869 829.5384,-668.3573 827.2638,-668.0162"/>
<polygon fill="#191970" stroke="#191970" points="827.6391,-664.5326 817.2213,-666.4614 826.568,-671.4502 827.6391,-664.5326"/>
</g>
<!-- Node35 -->
<g id="node36" class="node">
<title>Node35</title>
<g id="a_node36"><a xlink:href="api_2spec_2crypto_8h.html" target="_top" xlink:title="ODP crypto. ">
<polygon fill="#ffffff" stroke="#000000" points="596,-481.5 596,-500.5 706,-500.5 706,-481.5 596,-481.5"/>
<text text-anchor="middle" x="651" y="-488.5" font-family="Helvetica,sans-Serif" font-size="10.00" fill="#000000">odp/api/spec/crypto.h</text>
</a>
</g>
</g>
<!-- Node2&#45;&gt;Node35 -->
<g id="edge64" class="edge">
<title>Node2&#45;&gt;Node35</title>
<path fill="none" stroke="#191970" d="M1183.8497,-713.6279C1068.392,-709.6019 758.6464,-696.3446 722,-669 695.4415,-649.1827 667.2259,-552.4316 656.0125,-510.4733"/>
<polygon fill="#191970" stroke="#191970" points="659.3531,-509.4141 653.427,-500.6316 652.5828,-511.1928 659.3531,-509.4141"/>
</g>
<!-- Node4 -->
<g id="node5" class="node">
<title>Node4</title>
<polygon fill="#ffffff" stroke="#bfbfbf" points="1188,-185 1188,-204 1306,-204 1306,-185 1188,-185"/>
<text text-anchor="middle" x="1247" y="-192" font-family="Helvetica,sans-Serif" font-size="10.00" fill="#000000">odp/api/abi/std_types.h</text>
</g>
<!-- Node3&#45;&gt;Node4 -->
<g id="edge4" class="edge">
<title>Node3&#45;&gt;Node4</title>
<path fill="none" stroke="#191970" d="M1355.8438,-246.3906C1334.449,-236.1908 1300.438,-219.9763 1276.1298,-208.3875"/>
<polygon fill="#191970" stroke="#191970" points="1277.5476,-205.186 1267.0147,-204.0419 1274.5352,-211.5047 1277.5476,-205.186"/>
</g>
<!-- Node5 -->
<g id="node6" class="node">
<title>Node5</title>
<g id="a_node6"><a xlink:href="api_2spec_2std__types_8h.html" target="_top" xlink:title="Standard C language types and definitions for ODP. ">
<polygon fill="#ffffff" stroke="#000000" points="1362,-185 1362,-204 1488,-204 1488,-185 1362,-185"/>
<text text-anchor="middle" x="1425" y="-192" font-family="Helvetica,sans-Serif" font-size="10.00" fill="#000000">odp/api/spec/std_types.h</text>
</a>
</g>
</g>
<!-- Node3&#45;&gt;Node5 -->
<g id="edge5" class="edge">
<title>Node3&#45;&gt;Node5</title>
<path fill="none" stroke="#191970" d="M1383.6563,-246.3906C1390.9489,-237.2376 1402.1007,-223.2409 1410.9852,-212.09"/>
<polygon fill="#191970" stroke="#191970" points="1413.7417,-214.247 1417.2358,-204.2449 1408.267,-209.8849 1413.7417,-214.247"/>
</g>
<!-- Node5&#45;&gt;Node1 -->
<g id="edge6" class="edge">
<title>Node5&#45;&gt;Node1</title>
<path fill="none" stroke="#191970" d="M1402.4355,-184.8528C1330.3305,-154.0561 1109.2492,-59.8812 1093,-56 988.2639,-30.9834 671.1573,-17.0991 534.1667,-12.129"/>
<polygon fill="#191970" stroke="#191970" points="533.9527,-8.6192 523.8337,-11.7587 533.7019,-15.6147 533.9527,-8.6192"/>
</g>
<!-- Node6 -->
<g id="node7" class="node">
<title>Node6</title>
<polygon fill="#ffffff" stroke="#bfbfbf" points="1412.5,-123.5 1412.5,-142.5 1461.5,-142.5 1461.5,-123.5 1412.5,-123.5"/>
<text text-anchor="middle" x="1437" y="-130.5" font-family="Helvetica,sans-Serif" font-size="10.00" fill="#000000">stdint.h</text>
</g>
<!-- Node5&#45;&gt;Node6 -->
<g id="edge7" class="edge">
<title>Node5&#45;&gt;Node6</title>
<path fill="none" stroke="#191970" d="M1426.875,-184.8906C1428.5559,-176.276 1431.074,-163.3708 1433.1784,-152.5858"/>
<polygon fill="#191970" stroke="#191970" points="1436.6186,-153.2301 1435.0986,-142.7449 1429.7482,-151.8895 1436.6186,-153.2301"/>
</g>
<!-- Node7 -->
<g id="node8" class="node">
<title>Node7</title>
<g id="a_node8"><a xlink:href="api_2align_8h.html" target="_top" xlink:title="ODP alignments. ">
<polygon fill="#ffffff" stroke="#000000" points="1314,-123.5 1314,-142.5 1394,-142.5 1394,-123.5 1314,-123.5"/>
<text text-anchor="middle" x="1354" y="-130.5" font-family="Helvetica,sans-Serif" font-size="10.00" fill="#000000">odp/api/align.h</text>
</a>
</g>
</g>
<!-- Node5&#45;&gt;Node7 -->
<g id="edge8" class="edge">
<title>Node5&#45;&gt;Node7</title>
<path fill="none" stroke="#191970" d="M1413.9063,-184.8906C1403.0285,-175.4683 1386.2252,-160.9134 1373.18,-149.6137"/>
<polygon fill="#191970" stroke="#191970" points="1375.1004,-146.6466 1365.2502,-142.7449 1370.5173,-151.9377 1375.1004,-146.6466"/>
</g>
<!-- Node5&#45;&gt;Node10 -->
<g id="edge13" class="edge">
<title>Node5&#45;&gt;Node10</title>
<path fill="none" stroke="#191970" d="M1436.5666,-184.7087C1447.0291,-175.1701 1461.9864,-159.6991 1470,-143 1486.8391,-107.91 1504.949,-85.8732 1480,-56 1455.7841,-27.0046 1353.299,-16.2493 1286.1399,-12.2851"/>
<polygon fill="#191970" stroke="#191970" points="1286.2706,-8.7871 1276.0918,-11.7267 1285.8822,-15.7763 1286.2706,-8.7871"/>
</g>
<!-- Node8 -->
<g id="node9" class="node">
<title>Node8</title>
<polygon fill="#ffffff" stroke="#bfbfbf" points="1376.5,-62 1376.5,-81 1471.5,-81 1471.5,-62 1376.5,-62"/>
<text text-anchor="middle" x="1424" y="-69" font-family="Helvetica,sans-Serif" font-size="10.00" fill="#000000">odp/api/abi/align.h</text>
</g>
<!-- Node7&#45;&gt;Node8 -->
<g id="edge9" class="edge">
<title>Node7&#45;&gt;Node8</title>
<path fill="none" stroke="#191970" d="M1364.9375,-123.3906C1375.662,-113.9683 1392.2287,-99.4134 1405.0901,-88.1137"/>
<polygon fill="#191970" stroke="#191970" points="1407.7059,-90.4745 1412.9083,-81.2449 1403.0857,-85.2158 1407.7059,-90.4745"/>
</g>
<!-- Node9 -->
<g id="node10" class="node">
<title>Node9</title>
<g id="a_node10"><a xlink:href="api_2spec_2align_8h.html" target="_top" xlink:title="ODP alignments. ">
<polygon fill="#ffffff" stroke="#000000" points="1254,-62 1254,-81 1358,-81 1358,-62 1254,-62"/>
<text text-anchor="middle" x="1306" y="-69" font-family="Helvetica,sans-Serif" font-size="10.00" fill="#000000">odp/api/spec/align.h</text>
</a>
</g>
</g>
<!-- Node7&#45;&gt;Node9 -->
<g id="edge10" class="edge">
<title>Node7&#45;&gt;Node9</title>
<path fill="none" stroke="#191970" d="M1346.5,-123.3906C1339.4262,-114.3273 1328.6458,-100.5149 1319.9854,-89.4188"/>
<polygon fill="#191970" stroke="#191970" points="1322.5176,-86.9746 1313.6057,-81.2449 1316.9994,-91.2815 1322.5176,-86.9746"/>
</g>
<!-- Node9&#45;&gt;Node1 -->
<g id="edge11" class="edge">
<title>Node9&#45;&gt;Node1</title>
<path fill="none" stroke="#191970" d="M1253.7371,-62.8219C1237.2247,-60.3191 1218.883,-57.7853 1202,-56 955.9769,-29.9841 661.7641,-16.9617 534.2135,-12.1951"/>
<polygon fill="#191970" stroke="#191970" points="533.9786,-8.6841 523.8562,-11.8126 533.7201,-15.6794 533.9786,-8.6841"/>
</g>
<!-- Node9&#45;&gt;Node10 -->
<g id="edge12" class="edge">
<title>Node9&#45;&gt;Node10</title>
<path fill="none" stroke="#191970" d="M1293.5,-61.8906C1280.9364,-52.2324 1261.3577,-37.1812 1246.5151,-25.771"/>
<polygon fill="#191970" stroke="#191970" points="1248.4735,-22.8618 1238.4122,-19.5419 1244.2072,-28.4115 1248.4735,-22.8618"/>
</g>
<!-- Node15&#45;&gt;Node3 -->
<g id="edge19" class="edge">
<title>Node15&#45;&gt;Node3</title>
<path fill="none" stroke="#191970" d="M817.0053,-656.3174C867.4993,-651.9763 952.9881,-640.864 1021,-613 1133.865,-566.76 1160.862,-539.4795 1238,-445 1287.3219,-384.5899 1340.2661,-308.5122 1363.6705,-274.2267"/>
<polygon fill="#191970" stroke="#191970" points="1366.7314,-275.9497 1369.4608,-265.7124 1360.9431,-272.0132 1366.7314,-275.9497"/>
</g>
<!-- Node15&#45;&gt;Node13 -->
<g id="edge22" class="edge">
<title>Node15&#45;&gt;Node13</title>
<path fill="none" stroke="#191970" d="M817.4036,-653.9876C873.3034,-646.8571 966.6457,-632.4596 995,-613 1075.4535,-557.7846 1122.9026,-444.1946 1139.3832,-398.5875"/>
<polygon fill="#191970" stroke="#191970" points="1142.7409,-399.5894 1142.7509,-388.9946 1136.136,-397.2707 1142.7409,-399.5894"/>
</g>
<!-- Node15&#45;&gt;Node14 -->
<g id="edge23" class="edge">
<title>Node15&#45;&gt;Node14</title>
<path fill="none" stroke="#191970" d="M772.1247,-649.2076C766.5275,-621.4419 748.2334,-540.3742 715,-481 696.3068,-447.603 665.9168,-414.8246 646.7169,-395.7795"/>
<polygon fill="#191970" stroke="#191970" points="649.0822,-393.1974 639.4781,-388.7239 644.1963,-398.2102 649.0822,-393.1974"/>
</g>
<!-- Node16 -->
<g id="node17" class="node">
<title>Node16</title>
<polygon fill="#ffffff" stroke="#bfbfbf" points="732.5,-369.5 732.5,-388.5 831.5,-388.5 831.5,-369.5 732.5,-369.5"/>
<text text-anchor="middle" x="782" y="-376.5" font-family="Helvetica,sans-Serif" font-size="10.00" fill="#000000">odp/api/abi/event.h</text>
</g>
<!-- Node15&#45;&gt;Node16 -->
<g id="edge20" class="edge">
<title>Node15&#45;&gt;Node16</title>
<path fill="none" stroke="#191970" d="M774.2754,-649.3618C775.4245,-609.1418 779.851,-454.2159 781.4335,-398.8288"/>
<polygon fill="#191970" stroke="#191970" points="784.9387,-398.6936 781.7258,-388.5977 777.9415,-398.4936 784.9387,-398.6936"/>
</g>
<!-- Node17 -->
<g id="node18" class="node">
<title>Node17</title>
<polygon fill="#ffffff" stroke="#bfbfbf" points="414.5,-593.5 414.5,-612.5 515.5,-612.5 515.5,-593.5 414.5,-593.5"/>
<text text-anchor="middle" x="465" y="-600.5" font-family="Helvetica,sans-Serif" font-size="10.00" fill="#000000">odp/api/abi/queue.h</text>
</g>
<!-- Node15&#45;&gt;Node17 -->
<g id="edge21" class="edge">
<title>Node15&#45;&gt;Node17</title>
<path fill="none" stroke="#191970" d="M730.7095,-651.1545C677.3252,-641.4797 586.2575,-624.9755 525.8546,-614.0287"/>
<polygon fill="#191970" stroke="#191970" points="526.1564,-610.5264 515.6926,-612.187 524.9081,-617.4142 526.1564,-610.5264"/>
</g>
<!-- Node18 -->
<g id="node19" class="node">
<title>Node18</title>
<g id="a_node19"><a xlink:href="api_2spec_2queue_8h.html" target="_top" xlink:title="ODP queue. ">
<polygon fill="#ffffff" stroke="#000000" points="876,-593.5 876,-612.5 986,-612.5 986,-593.5 876,-593.5"/>
<text text-anchor="middle" x="931" y="-600.5" font-family="Helvetica,sans-Serif" font-size="10.00" fill="#000000">odp/api/spec/queue.h</text>
</a>
</g>
</g>
<!-- Node15&#45;&gt;Node18 -->
<g id="edge24" class="edge">
<title>Node15&#45;&gt;Node18</title>
<path fill="none" stroke="#191970" d="M800.9893,-649.3733C826.8699,-640.1419 866.1248,-626.1402 894.7289,-615.9375"/>
<polygon fill="#191970" stroke="#191970" points="896.12,-619.1573 904.3629,-612.5011 893.7683,-612.5642 896.12,-619.1573"/>
</g>
<!-- Node18&#45;&gt;Node1 -->
<g id="edge25" class="edge">
<title>Node18&#45;&gt;Node1</title>
<path fill="none" stroke="#191970" d="M875.8563,-594.3794C759.5457,-573.0827 489.052,-506.5413 358,-333 279.7393,-229.3658 183.8449,-157.3836 265,-56 282.506,-34.1305 352.8053,-21.9444 406.2435,-15.6946"/>
<polygon fill="#191970" stroke="#191970" points="406.8003,-19.1542 416.3468,-14.5592 406.0185,-12.1979 406.8003,-19.1542"/>
</g>
<!-- Node18&#45;&gt;Node10 -->
<g id="edge63" class="edge">
<title>Node18&#45;&gt;Node10</title>
<path fill="none" stroke="#191970" d="M951.0223,-593.4996C1018.637,-561.4531 1244.7977,-454.5542 1433,-369 1545.8496,-317.7001 1688,-379.9626 1688,-256 1688,-256 1688,-256 1688,-133 1688,-86.1475 1657.8109,-77.1426 1616,-56 1559.7191,-27.5404 1381.0957,-16.1908 1286.3558,-12.0847"/>
<polygon fill="#191970" stroke="#191970" points="1286.4818,-8.587 1276.3437,-11.6642 1286.188,-15.5808 1286.4818,-8.587"/>
</g>
<!-- Node19 -->
<g id="node20" class="node">
<title>Node19</title>
<g id="a_node20"><a xlink:href="api_2event_8h.html" target="_top" xlink:title="ODP event. ">
<polygon fill="#ffffff" stroke="#000000" points="914.5,-537.5 914.5,-556.5 997.5,-556.5 997.5,-537.5 914.5,-537.5"/>
<text text-anchor="middle" x="956" y="-544.5" font-family="Helvetica,sans-Serif" font-size="10.00" fill="#000000">odp/api/event.h</text>
</a>
</g>
</g>
<!-- Node18&#45;&gt;Node19 -->
<g id="edge26" class="edge">
<title>Node18&#45;&gt;Node19</title>
<path fill="none" stroke="#191970" d="M935.3547,-593.2455C938.7244,-585.6973 943.493,-575.0158 947.5983,-565.8197"/>
<polygon fill="#191970" stroke="#191970" points="950.8147,-567.2009 951.6952,-556.6427 944.4227,-564.3473 950.8147,-567.2009"/>
</g>
<!-- Node27 -->
<g id="node28" class="node">
<title>Node27</title>
<g id="a_node28"><a xlink:href="queue__types_8h.html" target="_top" xlink:title="ODP queue types. ">
<polygon fill="#ffffff" stroke="#000000" points="536.5,-302.5 536.5,-332.5 637.5,-332.5 637.5,-302.5 536.5,-302.5"/>
<text text-anchor="start" x="544.5" y="-320.5" font-family="Helvetica,sans-Serif" font-size="10.00" fill="#000000">odp/api/spec/queue</text>
<text text-anchor="middle" x="587" y="-309.5" font-family="Helvetica,sans-Serif" font-size="10.00" fill="#000000">_types.h</text>
</a>
</g>
</g>
<!-- Node18&#45;&gt;Node27 -->
<g id="edge47" class="edge">
<title>Node18&#45;&gt;Node27</title>
<path fill="none" stroke="#191970" d="M923.0569,-593.1875C894.3296,-558.2498 791.8313,-438.3032 684,-369 666.1071,-357.5002 645.3892,-346.2436 627.7059,-337.2018"/>
<polygon fill="#191970" stroke="#191970" points="629.2703,-334.0709 618.7664,-332.6859 626.114,-340.3189 629.2703,-334.0709"/>
</g>
<!-- Node19&#45;&gt;Node16 -->
<g id="edge27" class="edge">
<title>Node19&#45;&gt;Node16</title>
<path fill="none" stroke="#191970" d="M944.8279,-537.3733C934.3389,-528.2307 918.3129,-513.9909 905,-501 871.6989,-468.5043 866.3011,-457.4957 833,-425 822.5993,-414.8509 810.5427,-403.9395 800.764,-395.2919"/>
<polygon fill="#191970" stroke="#191970" points="802.9961,-392.5941 793.1721,-388.6267 798.3779,-397.8545 802.9961,-392.5941"/>
</g>
<!-- Node20 -->
<g id="node21" class="node">
<title>Node20</title>
<g id="a_node21"><a xlink:href="api_2spec_2event_8h.html" target="_top" xlink:title="ODP event. ">
<polygon fill="#ffffff" stroke="#000000" points="914.5,-481.5 914.5,-500.5 1021.5,-500.5 1021.5,-481.5 914.5,-481.5"/>
<text text-anchor="middle" x="968" y="-488.5" font-family="Helvetica,sans-Serif" font-size="10.00" fill="#000000">odp/api/spec/event.h</text>
</a>
</g>
</g>
<!-- Node19&#45;&gt;Node20 -->
<g id="edge28" class="edge">
<title>Node19&#45;&gt;Node20</title>
<path fill="none" stroke="#191970" d="M958.0902,-537.2455C959.6561,-529.9382 961.8512,-519.6944 963.7776,-510.7046"/>
<polygon fill="#191970" stroke="#191970" points="967.2607,-511.1541 965.9337,-500.6427 960.416,-509.6873 967.2607,-511.1541"/>
</g>
<!-- Node20&#45;&gt;Node1 -->
<g id="edge29" class="edge">
<title>Node20&#45;&gt;Node1</title>
<path fill="none" stroke="#191970" d="M956.14,-481.435C945.0124,-472.3361 928.029,-458.1258 914,-445 879.5739,-412.7903 882.4648,-389.4782 840,-369 670.518,-287.2693 432,-444.1596 432,-256 432,-256 432,-256 432,-133 432,-94.6461 449.0752,-52.4423 460.3334,-28.7843"/>
<polygon fill="#191970" stroke="#191970" points="463.5923,-30.0892 464.8752,-19.5723 457.3139,-26.9938 463.5923,-30.0892"/>
</g>
<!-- Node20&#45;&gt;Node10 -->
<g id="edge46" class="edge">
<title>Node20&#45;&gt;Node10</title>
<path fill="none" stroke="#191970" d="M1007.5272,-481.3953C1128.8932,-451.1518 1492.7492,-354.6294 1572,-266 1634.4409,-196.1699 1651.9472,-126.2684 1590,-56 1570.2688,-33.6184 1384.4282,-19.3576 1286.2026,-13.3198"/>
<polygon fill="#191970" stroke="#191970" points="1286.3077,-9.8199 1276.1146,-12.7097 1285.885,-16.8071 1286.3077,-9.8199"/>
</g>
<!-- Node21 -->
<g id="node22" class="node">
<title>Node21</title>
<g id="a_node22"><a xlink:href="api_2packet_8h.html" target="_top" xlink:title="ODP packet descriptor. ">
<polygon fill="#ffffff" stroke="#000000" points="923.5,-425.5 923.5,-444.5 1012.5,-444.5 1012.5,-425.5 923.5,-425.5"/>
<text text-anchor="middle" x="968" y="-432.5" font-family="Helvetica,sans-Serif" font-size="10.00" fill="#000000">odp/api/packet.h</text>
</a>
</g>
</g>
<!-- Node20&#45;&gt;Node21 -->
<g id="edge30" class="edge">
<title>Node20&#45;&gt;Node21</title>
<path fill="none" stroke="#191970" d="M968,-481.2455C968,-473.9382 968,-463.6944 968,-454.7046"/>
<polygon fill="#191970" stroke="#191970" points="971.5001,-454.6426 968,-444.6427 964.5001,-454.6427 971.5001,-454.6426"/>
</g>
<!-- Node21&#45;&gt;Node3 -->
<g id="edge31" class="edge">
<title>Node21&#45;&gt;Node3</title>
<path fill="none" stroke="#191970" d="M977.5159,-425.0371C992.3419,-410.1843 1022.5347,-382.5364 1054,-369 1147.4318,-328.8055 1187.0045,-374.1937 1280,-333 1296.9632,-325.4859 1335.093,-292.729 1357.8633,-272.4372"/>
<polygon fill="#191970" stroke="#191970" points="1360.3836,-274.8783 1365.4898,-265.5951 1355.709,-269.6679 1360.3836,-274.8783"/>
</g>
<!-- Node21&#45;&gt;Node11 -->
<g id="edge34" class="edge">
<title>Node21&#45;&gt;Node11</title>
<path fill="none" stroke="#191970" d="M1012.8465,-430.2255C1106.8307,-420.2195 1324.6016,-397.0348 1431.9294,-385.6083"/>
<polygon fill="#191970" stroke="#191970" points="1432.3901,-389.0791 1441.9633,-384.54 1431.649,-382.1184 1432.3901,-389.0791"/>
</g>
<!-- Node21&#45;&gt;Node13 -->
<g id="edge35" class="edge">
<title>Node21&#45;&gt;Node13</title>
<path fill="none" stroke="#191970" d="M998.5993,-425.3733C1028.3261,-416.021 1073.6159,-401.7725 1106.1456,-391.5385"/>
<polygon fill="#191970" stroke="#191970" points="1107.3113,-394.8409 1115.8,-388.5011 1105.2105,-388.1636 1107.3113,-394.8409"/>
</g>
<!-- Node21&#45;&gt;Node14 -->
<g id="edge36" class="edge">
<title>Node21&#45;&gt;Node14</title>
<path fill="none" stroke="#191970" d="M923.3331,-427.6214C862.1961,-417.5221 752.4389,-399.3911 685.6107,-388.3516"/>
<polygon fill="#191970" stroke="#191970" points="686.1074,-384.8863 675.6706,-386.7096 684.9664,-391.7927 686.1074,-384.8863"/>
</g>
<!-- Node21&#45;&gt;Node16 -->
<g id="edge32" class="edge">
<title>Node21&#45;&gt;Node16</title>
<path fill="none" stroke="#191970" d="M936.0255,-425.3733C904.8287,-415.9807 857.229,-401.6496 823.2068,-391.4064"/>
<polygon fill="#191970" stroke="#191970" points="824.1418,-388.0327 813.5573,-388.5011 822.1237,-394.7355 824.1418,-388.0327"/>
</g>
<!-- Node22 -->
<g id="node23" class="node">
<title>Node22</title>
<polygon fill="#ffffff" stroke="#bfbfbf" points="180.5,-369.5 180.5,-388.5 297.5,-388.5 297.5,-369.5 180.5,-369.5"/>
<text text-anchor="middle" x="239" y="-376.5" font-family="Helvetica,sans-Serif" font-size="10.00" fill="#000000">odp/api/abi/packet_io.h</text>
</g>
<!-- Node21&#45;&gt;Node22 -->
<g id="edge33" class="edge">
<title>Node21&#45;&gt;Node22</title>
<path fill="none" stroke="#191970" d="M923.4952,-431.5812C800.6264,-422.1428 456.0258,-395.6714 307.9943,-384.3"/>
<polygon fill="#191970" stroke="#191970" points="307.9202,-380.7841 297.6815,-383.5078 307.384,-387.7635 307.9202,-380.7841"/>
</g>
<!-- Node23 -->
<g id="node24" class="node">
<title>Node23</title>
<g id="a_node24"><a xlink:href="api_2spec_2packet_8h.html" target="_top" xlink:title="ODP packet descriptor. ">
<polygon fill="#ffffff" stroke="#000000" points="888.5,-369.5 888.5,-388.5 1001.5,-388.5 1001.5,-369.5 888.5,-369.5"/>
<text text-anchor="middle" x="945" y="-376.5" font-family="Helvetica,sans-Serif" font-size="10.00" fill="#000000">odp/api/spec/packet.h</text>
</a>
</g>
</g>
<!-- Node21&#45;&gt;Node23 -->
<g id="edge37" class="edge">
<title>Node21&#45;&gt;Node23</title>
<path fill="none" stroke="#191970" d="M963.9937,-425.2455C960.9265,-417.7776 956.5997,-407.2427 952.8503,-398.1137"/>
<polygon fill="#191970" stroke="#191970" points="955.9972,-396.5631 948.9604,-388.6427 949.5221,-399.2226 955.9972,-396.5631"/>
</g>
<!-- Node23&#45;&gt;Node1 -->
<g id="edge38" class="edge">
<title>Node23&#45;&gt;Node1</title>
<path fill="none" stroke="#191970" d="M888.4433,-370.8444C883.5611,-370.198 878.6953,-369.574 874,-369 797.0479,-359.5923 594.3366,-371.4175 527,-333 490.0171,-311.9002 470,-298.5786 470,-256 470,-256 470,-256 470,-133 470,-96.4994 470,-53.906 470,-29.6285"/>
<polygon fill="#191970" stroke="#191970" points="473.5001,-29.5691 470,-19.5691 466.5001,-29.5692 473.5001,-29.5691"/>
</g>
<!-- Node23&#45;&gt;Node10 -->
<g id="edge45" class="edge">
<title>Node23&#45;&gt;Node10</title>
<path fill="none" stroke="#191970" d="M941.6719,-369.298C933.9421,-344.7738 917.8445,-279.8509 951,-246 1036.085,-159.1304 1412.4628,-297.4028 1497,-210 1544.6004,-160.7861 1545.2403,-108.2551 1501,-56 1487.2679,-39.7801 1362.9634,-24.1666 1286.2534,-15.9604"/>
<polygon fill="#191970" stroke="#191970" points="1286.5356,-12.4709 1276.2231,-14.9005 1285.7999,-19.4321 1286.5356,-12.4709"/>
</g>
<!-- Node24 -->
<g id="node25" class="node">
<title>Node24</title>
<g id="a_node25"><a xlink:href="api_2time_8h.html" target="_top" xlink:title="ODP time. ">
<polygon fill="#ffffff" stroke="#000000" points="1014,-308 1014,-327 1092,-327 1092,-308 1014,-308"/>
<text text-anchor="middle" x="1053" y="-315" font-family="Helvetica,sans-Serif" font-size="10.00" fill="#000000">odp/api/time.h</text>
</a>
</g>
</g>
<!-- Node23&#45;&gt;Node24 -->
<g id="edge39" class="edge">
<title>Node23&#45;&gt;Node24</title>
<path fill="none" stroke="#191970" d="M961.875,-369.3906C979.4698,-359.3713 1007.2566,-343.5483 1027.5241,-332.0071"/>
<polygon fill="#191970" stroke="#191970" points="1029.2856,-335.0318 1036.2435,-327.0419 1025.8217,-328.9489 1029.2856,-335.0318"/>
</g>
<!-- Node24&#45;&gt;Node3 -->
<g id="edge40" class="edge">
<title>Node24&#45;&gt;Node3</title>
<path fill="none" stroke="#191970" d="M1092.2832,-310.0204C1147.9793,-299.4157 1250.3777,-279.9188 1315.7264,-267.4762"/>
<polygon fill="#191970" stroke="#191970" points="1316.7147,-270.851 1325.8836,-265.5423 1315.4054,-263.9746 1316.7147,-270.851"/>
</g>
<!-- Node25 -->
<g id="node26" class="node">
<title>Node25</title>
<polygon fill="#ffffff" stroke="#bfbfbf" points="960,-246.5 960,-265.5 1054,-265.5 1054,-246.5 960,-246.5"/>
<text text-anchor="middle" x="1007" y="-253.5" font-family="Helvetica,sans-Serif" font-size="10.00" fill="#000000">odp/api/abi/time.h</text>
</g>
<!-- Node24&#45;&gt;Node25 -->
<g id="edge41" class="edge">
<title>Node24&#45;&gt;Node25</title>
<path fill="none" stroke="#191970" d="M1045.8125,-307.8906C1039.0334,-298.8273 1028.7022,-285.0149 1020.4027,-273.9188"/>
<polygon fill="#191970" stroke="#191970" points="1023.0812,-271.6563 1014.2888,-265.7449 1017.4757,-275.849 1023.0812,-271.6563"/>
</g>
<!-- Node26 -->
<g id="node27" class="node">
<title>Node26</title>
<g id="a_node27"><a xlink:href="api_2spec_2time_8h.html" target="_top" xlink:title="ODP time. ">
<polygon fill="#ffffff" stroke="#000000" points="982,-62 982,-81 1084,-81 1084,-62 982,-62"/>
<text text-anchor="middle" x="1033" y="-69" font-family="Helvetica,sans-Serif" font-size="10.00" fill="#000000">odp/api/spec/time.h</text>
</a>
</g>
</g>
<!-- Node24&#45;&gt;Node26 -->
<g id="edge42" class="edge">
<title>Node24&#45;&gt;Node26</title>
<path fill="none" stroke="#191970" d="M1055.4832,-307.7091C1057.958,-297.4091 1061.5873,-280.6871 1063,-266 1069.199,-201.5543 1049.7839,-125.9476 1039.2776,-91.0127"/>
<polygon fill="#191970" stroke="#191970" points="1042.5286,-89.6793 1036.2232,-81.165 1035.8428,-91.753 1042.5286,-89.6793"/>
</g>
<!-- Node26&#45;&gt;Node1 -->
<g id="edge43" class="edge">
<title>Node26&#45;&gt;Node1</title>
<path fill="none" stroke="#191970" d="M981.9359,-65.6601C956.171,-62.7295 924.4308,-59.1433 896,-56 767.531,-41.7966 617.2087,-25.683 533.8788,-16.7951"/>
<polygon fill="#191970" stroke="#191970" points="534.1227,-13.3014 523.808,-15.7214 533.3806,-20.262 534.1227,-13.3014"/>
</g>
<!-- Node26&#45;&gt;Node10 -->
<g id="edge44" class="edge">
<title>Node26&#45;&gt;Node10</title>
<path fill="none" stroke="#191970" d="M1063.1563,-61.8906C1096.2985,-51.3298 1149.6762,-34.3208 1186.2242,-22.6747"/>
<polygon fill="#191970" stroke="#191970" points="1187.5902,-25.9129 1196.0555,-19.5419 1185.4649,-19.2433 1187.5902,-25.9129"/>
</g>
<!-- Node27&#45;&gt;Node1 -->
<g id="edge48" class="edge">
<title>Node27&#45;&gt;Node1</title>
<path fill="none" stroke="#191970" d="M566.2877,-302.3154C554.8003,-292.9622 541.0503,-280.0872 532,-266 513.8818,-237.7983 508,-228.0202 508,-194.5 508,-194.5 508,-194.5 508,-133 508,-94.6461 490.9248,-52.4423 479.6666,-28.7843"/>
<polygon fill="#191970" stroke="#191970" points="482.6861,-26.9938 475.1248,-19.5723 476.4077,-30.0892 482.6861,-26.9938"/>
</g>
<!-- Node27&#45;&gt;Node10 -->
<g id="edge62" class="edge">
<title>Node27&#45;&gt;Node10</title>
<path fill="none" stroke="#191970" d="M637.5656,-303.079C668.6939,-293.6713 709.1672,-280.4785 744,-266 756.6645,-260.7359 843.439,-218.7501 854,-210 920.6063,-154.8142 899.0953,-100.9441 973,-56 1004.6359,-36.761 1101.495,-23.1412 1165.772,-15.9359"/>
<polygon fill="#191970" stroke="#191970" points="1166.2355,-19.4062 1175.7933,-14.8347 1165.4708,-12.4481 1166.2355,-19.4062"/>
</g>
<!-- Node28 -->
<g id="node29" class="node">
<title>Node28</title>
<g id="a_node29"><a xlink:href="api_2schedule__types_8h.html" target="_top" xlink:title="ODP schedule. ">
<polygon fill="#ffffff" stroke="#000000" points="574,-246.5 574,-265.5 702,-265.5 702,-246.5 574,-246.5"/>
<text text-anchor="middle" x="638" y="-253.5" font-family="Helvetica,sans-Serif" font-size="10.00" fill="#000000">odp/api/schedule_types.h</text>
</a>
</g>
</g>
<!-- Node27&#45;&gt;Node28 -->
<g id="edge49" class="edge">
<title>Node27&#45;&gt;Node28</title>
<path fill="none" stroke="#191970" d="M599.6067,-302.2977C606.7598,-293.672 615.7497,-282.8312 623.2318,-273.8087"/>
<polygon fill="#191970" stroke="#191970" points="626.145,-275.7787 629.8343,-265.8469 620.7567,-271.3103 626.145,-275.7787"/>
</g>
<!-- Node33 -->
<g id="node34" class="node">
<title>Node33</title>
<g id="a_node34"><a xlink:href="deprecated_8h.html" target="_top" xlink:title="Control deprecated API definitions. ">
<polygon fill="#ffffff" stroke="#000000" points="796.5,-246.5 796.5,-265.5 903.5,-265.5 903.5,-246.5 796.5,-246.5"/>
<text text-anchor="middle" x="850" y="-253.5" font-family="Helvetica,sans-Serif" font-size="10.00" fill="#000000">odp/api/deprecated.h</text>
</a>
</g>
</g>
<!-- Node27&#45;&gt;Node33 -->
<g id="edge58" class="edge">
<title>Node27&#45;&gt;Node33</title>
<path fill="none" stroke="#191970" d="M637.7353,-305.3715C642.5559,-304.2282 647.3701,-303.0898 652,-302 701.877,-290.2594 758.8694,-277.0393 798.8615,-267.7947"/>
<polygon fill="#191970" stroke="#191970" points="799.6927,-271.1949 808.648,-265.5333 798.1167,-264.3746 799.6927,-271.1949"/>
</g>
<!-- Node29 -->
<g id="node30" class="node">
<title>Node29</title>
<polygon fill="#ffffff" stroke="#bfbfbf" points="574,-179.5 574,-209.5 680,-209.5 680,-179.5 574,-179.5"/>
<text text-anchor="start" x="582" y="-197.5" font-family="Helvetica,sans-Serif" font-size="10.00" fill="#000000">odp/api/abi/schedule</text>
<text text-anchor="middle" x="627" y="-186.5" font-family="Helvetica,sans-Serif" font-size="10.00" fill="#000000">_types.h</text>
</g>
<!-- Node28&#45;&gt;Node29 -->
<g id="edge50" class="edge">
<title>Node28&#45;&gt;Node29</title>
<path fill="none" stroke="#191970" d="M636.2813,-246.3906C634.9993,-239.2234 633.1862,-229.0862 631.5021,-219.671"/>
<polygon fill="#191970" stroke="#191970" points="634.897,-218.7721 629.6909,-209.5446 628.0063,-220.0046 634.897,-218.7721"/>
</g>
<!-- Node30 -->
<g id="node31" class="node">
<title>Node30</title>
<g id="a_node31"><a xlink:href="api_2spec_2schedule__types_8h.html" target="_top" xlink:title="ODP schedule types. ">
<polygon fill="#ffffff" stroke="#000000" points="698,-179.5 698,-209.5 812,-209.5 812,-179.5 698,-179.5"/>
<text text-anchor="start" x="706" y="-197.5" font-family="Helvetica,sans-Serif" font-size="10.00" fill="#000000">odp/api/spec/schedule</text>
<text text-anchor="middle" x="755" y="-186.5" font-family="Helvetica,sans-Serif" font-size="10.00" fill="#000000">_types.h</text>
</a>
</g>
</g>
<!-- Node28&#45;&gt;Node30 -->
<g id="edge51" class="edge">
<title>Node28&#45;&gt;Node30</title>
<path fill="none" stroke="#191970" d="M656.2813,-246.3906C672.5556,-237.8361 696.8788,-225.0509 717.3087,-214.3121"/>
<polygon fill="#191970" stroke="#191970" points="719.1554,-217.2955 726.3786,-209.5446 715.8984,-211.0994 719.1554,-217.2955"/>
</g>
<!-- Node30&#45;&gt;Node1 -->
<g id="edge52" class="edge">
<title>Node30&#45;&gt;Node1</title>
<path fill="none" stroke="#191970" d="M735.7113,-179.3664C701.4143,-152.7886 627.1098,-96.6885 560,-56 540.6293,-44.2556 517.9087,-32.6586 500.1425,-24.0468"/>
<polygon fill="#191970" stroke="#191970" points="501.3655,-20.7518 490.8348,-19.5876 498.341,-27.0648 501.3655,-20.7518"/>
</g>
<!-- Node30&#45;&gt;Node10 -->
<g id="edge57" class="edge">
<title>Node30&#45;&gt;Node10</title>
<path fill="none" stroke="#191970" d="M774.6372,-179.401C820.3365,-144.3174 930.6501,-59.9647 940,-56 979.6067,-39.2053 1094.0111,-24.3135 1165.5484,-16.2822"/>
<polygon fill="#191970" stroke="#191970" points="1166.2249,-19.7288 1175.7781,-15.1477 1165.4532,-12.7714 1166.2249,-19.7288"/>
</g>
<!-- Node30&#45;&gt;Node31 -->
<g id="edge53" class="edge">
<title>Node30&#45;&gt;Node31</title>
<path fill="none" stroke="#191970" d="M697.8343,-180.7155C694.8521,-180.1089 691.8939,-179.5326 689,-179 588.6754,-160.5375 470.5532,-146.3308 402.3697,-138.8558"/>
<polygon fill="#191970" stroke="#191970" points="402.5928,-135.3595 392.2731,-137.7581 401.8363,-142.3185 402.5928,-135.3595"/>
</g>
<!-- Node32 -->
<g id="node33" class="node">
<title>Node32</title>
<g id="a_node33"><a xlink:href="spec_2support_8h.html" target="_top" xlink:title="ODP support API. ">
<polygon fill="#ffffff" stroke="#000000" points="288,-62 288,-81 404,-81 404,-62 288,-62"/>
<text text-anchor="middle" x="346" y="-69" font-family="Helvetica,sans-Serif" font-size="10.00" fill="#000000">odp/api/spec/support.h</text>
</a>
</g>
</g>
<!-- Node31&#45;&gt;Node32 -->
<g id="edge54" class="edge">
<title>Node31&#45;&gt;Node32</title>
<path fill="none" stroke="#191970" d="M346,-123.3906C346,-114.8657 346,-102.1392 346,-91.4235"/>
<polygon fill="#191970" stroke="#191970" points="349.5001,-91.2448 346,-81.2449 342.5001,-91.2449 349.5001,-91.2448"/>
</g>
<!-- Node32&#45;&gt;Node1 -->
<g id="edge55" class="edge">
<title>Node32&#45;&gt;Node1</title>
<path fill="none" stroke="#191970" d="M365.375,-61.8906C385.8495,-51.7359 418.3442,-35.6196 441.6885,-24.0416"/>
<polygon fill="#191970" stroke="#191970" points="443.3575,-27.1207 450.7611,-19.5419 440.2472,-20.8496 443.3575,-27.1207"/>
</g>
<!-- Node32&#45;&gt;Node10 -->
<g id="edge56" class="edge">
<title>Node32&#45;&gt;Node10</title>
<path fill="none" stroke="#191970" d="M404.0796,-67.441C563.0353,-56.3322 1004.0826,-25.509 1165.6684,-14.2164"/>
<polygon fill="#191970" stroke="#191970" points="1166.1701,-17.6899 1175.9017,-13.5012 1165.682,-10.707 1166.1701,-17.6899"/>
</g>
<!-- Node34 -->
<g id="node35" class="node">
<title>Node34</title>
<g id="a_node35"><a xlink:href="spec_2deprecated_8h.html" target="_top" xlink:title="Macro for deprecated API definitions. ">
<polygon fill="#ffffff" stroke="#000000" points="756.5,-62 756.5,-81 887.5,-81 887.5,-62 756.5,-62"/>
<text text-anchor="middle" x="822" y="-69" font-family="Helvetica,sans-Serif" font-size="10.00" fill="#000000">odp/api/spec/deprecated.h</text>
</a>
</g>
</g>
<!-- Node33&#45;&gt;Node34 -->
<g id="edge59" class="edge">
<title>Node33&#45;&gt;Node34</title>
<path fill="none" stroke="#191970" d="M852.239,-246.4037C857.0092,-224.176 866.7421,-167.6499 854,-123 850.5413,-110.8801 843.3178,-98.8316 836.6078,-89.439"/>
<polygon fill="#191970" stroke="#191970" points="839.2974,-87.193 830.4714,-81.3318 833.7159,-91.4177 839.2974,-87.193"/>
</g>
<!-- Node34&#45;&gt;Node1 -->
<g id="edge60" class="edge">
<title>Node34&#45;&gt;Node1</title>
<path fill="none" stroke="#191970" d="M777.2419,-61.9504C767.2998,-59.9128 756.8033,-57.8263 747,-56 674.1372,-42.4263 590.1191,-28.7506 533.8954,-19.8816"/>
<polygon fill="#191970" stroke="#191970" points="534.152,-16.379 523.7296,-18.2826 533.0642,-23.294 534.152,-16.379"/>
</g>
<!-- Node34&#45;&gt;Node10 -->
<g id="edge61" class="edge">
<title>Node34&#45;&gt;Node10</title>
<path fill="none" stroke="#191970" d="M869.3072,-61.9254C880.0378,-59.8675 891.3963,-57.7788 902,-56 993.7456,-40.6094 1100.6771,-26.0881 1165.8352,-17.6204"/>
<polygon fill="#191970" stroke="#191970" points="1166.4575,-21.0691 1175.9253,-16.3142 1165.5587,-14.1271 1166.4575,-21.0691"/>
</g>
<!-- Node35&#45;&gt;Node1 -->
<g id="edge65" class="edge">
<title>Node35&#45;&gt;Node1</title>
<path fill="none" stroke="#191970" d="M627.1758,-481.4299C588.6558,-465.3805 511.1478,-430.6683 453,-389 346.5893,-312.7468 336.621,-265.705 291,-143 277.3976,-106.4141 254.8461,-86.6617 279,-56 294.7474,-36.0097 357.031,-23.6947 406.2496,-16.8992"/>
<polygon fill="#191970" stroke="#191970" points="406.7658,-20.3615 416.2166,-15.5726 405.8422,-13.4227 406.7658,-20.3615"/>
</g>
<!-- Node35&#45;&gt;Node10 -->
<g id="edge69" class="edge">
<title>Node35&#45;&gt;Node10</title>
<path fill="none" stroke="#191970" d="M706.2262,-488.9474C795.7055,-484.8295 967.7326,-473.3915 1021,-445 1060.4791,-423.9577 1047.8652,-390.676 1087,-369 1177.1265,-319.0808 1218.6176,-366.6362 1316,-333 1417.1522,-298.0617 1455.8751,-293.3468 1523,-210 1565.9393,-156.6836 1578.2337,-100.25 1526,-56 1490.7935,-26.1747 1363.3493,-15.6286 1286.3498,-11.942"/>
<polygon fill="#191970" stroke="#191970" points="1286.4448,-8.4428 1276.2964,-11.4858 1286.1274,-15.4356 1286.4448,-8.4428"/>
</g>
<!-- Node35&#45;&gt;Node21 -->
<g id="edge68" class="edge">
<title>Node35&#45;&gt;Node21</title>
<path fill="none" stroke="#191970" d="M705.1341,-481.4369C763.1867,-471.1815 854.8644,-454.9861 913.1802,-444.6843"/>
<polygon fill="#191970" stroke="#191970" points="914.0703,-448.0813 923.309,-442.8949 912.8525,-441.188 914.0703,-448.0813"/>
</g>
<!-- Node35&#45;&gt;Node31 -->
<g id="edge67" class="edge">
<title>Node35&#45;&gt;Node31</title>
<path fill="none" stroke="#191970" d="M639.6284,-481.3928C623.7671,-468.1501 593.9149,-443.7937 567,-425 503.1884,-380.4426 467.0348,-393.439 418,-333 372.9255,-277.4424 354.829,-191.3358 348.6997,-152.8091"/>
<polygon fill="#191970" stroke="#191970" points="352.1539,-152.2417 347.22,-142.8659 345.2301,-153.2722 352.1539,-152.2417"/>
</g>
<!-- Node35&#45;&gt;Node33 -->
<g id="edge66" class="edge">
<title>Node35&#45;&gt;Node33</title>
<path fill="none" stroke="#191970" d="M644.79,-481.3476C636.2546,-468.2598 620.2198,-444.3031 605,-425 591.7456,-408.1895 580.6077,-409.0098 573,-389 569.8411,-380.6914 567.8127,-376.2183 573,-369 602.2808,-328.2549 633.3104,-351.3742 680,-333 730.6283,-313.0758 787.9836,-286.1592 821.4567,-269.9964"/>
<polygon fill="#191970" stroke="#191970" points="823.1716,-273.0546 830.6417,-265.5414 820.1168,-266.7564 823.1716,-273.0546"/>
</g>
<!-- Node36&#45;&gt;Node3 -->
<g id="edge72" class="edge">
<title>Node36&#45;&gt;Node3</title>
<path fill="none" stroke="#191970" d="M606.7166,-770.4695C758.4957,-768.502 1207.3825,-759.8166 1349,-725 1486.0624,-691.3033 1612,-688.1438 1612,-547 1612,-547 1612,-547 1612,-435 1612,-341.016 1491.7175,-289.9935 1422.8949,-268.492"/>
<polygon fill="#191970" stroke="#191970" points="1423.72,-265.0849 1413.1346,-265.5323 1421.6886,-271.7837 1423.72,-265.0849"/>
</g>
<!-- Node36&#45;&gt;Node11 -->
<g id="edge75" class="edge">
<title>Node36&#45;&gt;Node11</title>
<path fill="none" stroke="#191970" d="M606.8098,-770.0846C797.4058,-765.9889 1459,-745.5391 1459,-659 1459,-659 1459,-659 1459,-491 1459,-456.8821 1473.9795,-419.4701 1484.3391,-397.676"/>
<polygon fill="#191970" stroke="#191970" points="1487.5455,-399.0877 1488.8356,-388.5717 1481.2692,-395.9879 1487.5455,-399.0877"/>
</g>
<!-- Node36&#45;&gt;Node14 -->
<g id="edge73" class="edge">
<title>Node36&#45;&gt;Node14</title>
<path fill="none" stroke="#191970" d="M556.046,-761.313C556.4282,-724.2985 559.7216,-588.481 587,-481 594.6976,-450.6702 609.6789,-417.5047 619.5102,-397.4789"/>
<polygon fill="#191970" stroke="#191970" points="622.6429,-399.0396 623.9923,-388.5311 616.3842,-395.9046 622.6429,-399.0396"/>
</g>
<!-- Node36&#45;&gt;Node17 -->
<g id="edge77" class="edge">
<title>Node36&#45;&gt;Node17</title>
<path fill="none" stroke="#191970" d="M550.8467,-761.4862C536.2749,-734.5845 494.5747,-657.5994 475.1656,-621.7673"/>
<polygon fill="#191970" stroke="#191970" points="478.1638,-619.9538 470.3234,-612.8279 472.0088,-623.2878 478.1638,-619.9538"/>
</g>
<!-- Node36&#45;&gt;Node22 -->
<g id="edge76" class="edge">
<title>Node36&#45;&gt;Node22</title>
<path fill="none" stroke="#191970" d="M542.0895,-761.2931C493.0996,-726.8665 329.6006,-609.8509 294,-557 259.9068,-506.387 246.1927,-433.6936 241.3373,-398.9576"/>
<polygon fill="#191970" stroke="#191970" points="244.767,-398.1881 240.0136,-388.7195 237.8248,-399.0857 244.767,-398.1881"/>
</g>
<!-- Node37 -->
<g id="node38" class="node">
<title>Node37</title>
<polygon fill="#ffffff" stroke="#bfbfbf" points="320,-705.5 320,-724.5 452,-724.5 452,-705.5 320,-705.5"/>
<text text-anchor="middle" x="386" y="-712.5" font-family="Helvetica,sans-Serif" font-size="10.00" fill="#000000">odp/api/abi/classification.h</text>
</g>
<!-- Node36&#45;&gt;Node37 -->
<g id="edge74" class="edge">
<title>Node36&#45;&gt;Node37</title>
<path fill="none" stroke="#191970" d="M526.776,-761.3733C498.5075,-752.0613 455.5035,-737.8953 424.4656,-727.671"/>
<polygon fill="#191970" stroke="#191970" points="425.4357,-724.3056 414.8427,-724.5011 423.2456,-730.9542 425.4357,-724.3056"/>
</g>
<!-- Node38 -->
<g id="node39" class="node">
<title>Node38</title>
<g id="a_node39"><a xlink:href="api_2spec_2packet__io_8h.html" target="_top" xlink:title="ODP Packet IO. ">
<polygon fill="#ffffff" stroke="#000000" points="653.5,-705.5 653.5,-724.5 778.5,-724.5 778.5,-705.5 653.5,-705.5"/>
<text text-anchor="middle" x="716" y="-712.5" font-family="Helvetica,sans-Serif" font-size="10.00" fill="#000000">odp/api/spec/packet_io.h</text>
</a>
</g>
</g>
<!-- Node36&#45;&gt;Node38 -->
<g id="edge78" class="edge">
<title>Node36&#45;&gt;Node38</title>
<path fill="none" stroke="#191970" d="M583.505,-761.3733C609.8802,-752.1419 649.8851,-738.1402 679.0358,-727.9375"/>
<polygon fill="#191970" stroke="#191970" points="680.5716,-731.1082 688.8539,-724.5011 678.2591,-724.5012 680.5716,-731.1082"/>
</g>
<!-- Node38&#45;&gt;Node1 -->
<g id="edge79" class="edge">
<title>Node38&#45;&gt;Node1</title>
<path fill="none" stroke="#191970" d="M694.7217,-705.3677C676.1306,-696.6626 648.6488,-683.0872 626,-669 577.9946,-639.1415 575.8357,-615.5634 524,-593 442.3908,-557.4766 387.7116,-622.0852 327,-557 269.6514,-495.5201 326.7726,-450.4686 306,-369 270.9184,-231.4127 143.4399,-158.21 242,-56 264.2906,-32.8839 346.8903,-20.7354 406.2569,-14.8492"/>
<polygon fill="#191970" stroke="#191970" points="406.6885,-18.324 416.3107,-13.8896 406.0234,-11.3557 406.6885,-18.324"/>
</g>
<!-- Node38&#45;&gt;Node10 -->
<g id="edge88" class="edge">
<title>Node38&#45;&gt;Node10</title>
<path fill="none" stroke="#191970" d="M778.6833,-710.4989C871.1787,-703.338 1039.4837,-688.1794 1097,-669 1144.2234,-653.2529 1161.5225,-650.7258 1194,-613 1265.3575,-530.1111 1296.022,-453.0202 1226,-369 1199.2095,-336.8538 1166.2828,-364.7295 1139,-333 1116.0187,-306.2731 1120,-291.2487 1120,-256 1120,-256 1120,-256 1120,-194.5 1120,-124.6433 1177.8384,-57.3183 1208.0673,-26.9017"/>
<polygon fill="#191970" stroke="#191970" points="1210.764,-29.1591 1215.4488,-19.6562 1205.8605,-24.1635 1210.764,-29.1591"/>
</g>
<!-- Node38&#45;&gt;Node15 -->
<g id="edge85" class="edge">
<title>Node38&#45;&gt;Node15</title>
<path fill="none" stroke="#191970" d="M726.1028,-705.2455C734.5028,-697.1352 746.6494,-685.4075 756.6084,-675.7919"/>
<polygon fill="#191970" stroke="#191970" points="759.25,-678.1066 764.0129,-668.6427 754.3878,-673.0707 759.25,-678.1066"/>
</g>
<!-- Node38&#45;&gt;Node21 -->
<g id="edge87" class="edge">
<title>Node38&#45;&gt;Node21</title>
<path fill="none" stroke="#191970" d="M778.8661,-710.1803C890.1031,-699.908 1110,-671.0016 1110,-603 1110,-603 1110,-603 1110,-547 1110,-495.4414 1051.5745,-463.9443 1009.6766,-447.9859"/>
<polygon fill="#191970" stroke="#191970" points="1010.8159,-444.676 1000.222,-444.5374 1008.4172,-451.2522 1010.8159,-444.676"/>
</g>
<!-- Node38&#45;&gt;Node24 -->
<g id="edge86" class="edge">
<title>Node38&#45;&gt;Node24</title>
<path fill="none" stroke="#191970" d="M778.7927,-710.6739C864.0686,-704.111 1011.5429,-690.123 1061,-669 1159.6489,-626.8673 1224,-598.2696 1224,-491 1224,-491 1224,-491 1224,-435 1224,-404.4754 1226.0779,-391.0788 1205,-369 1200.9728,-364.7815 1137.1764,-344.0461 1093.5271,-330.207"/>
<polygon fill="#191970" stroke="#191970" points="1094.3214,-326.7874 1083.7315,-327.1096 1092.211,-333.4617 1094.3214,-326.7874"/>
</g>
<!-- Node38&#45;&gt;Node33 -->
<g id="edge80" class="edge">
<title>Node38&#45;&gt;Node33</title>
<path fill="none" stroke="#191970" d="M708.5653,-705.4819C692.4806,-684.9051 653.22,-634.7634 620,-593 563.0397,-521.3909 462.871,-508.1777 501,-425 532.8038,-355.6206 582.2044,-374.8941 646,-333 663.0931,-321.7751 662.0714,-311.8356 680,-302 712.7959,-284.0081 753.072,-272.707 786.1883,-265.8107"/>
<polygon fill="#191970" stroke="#191970" points="787.0978,-269.1983 796.2197,-263.8094 785.7282,-262.3336 787.0978,-269.1983"/>
</g>
<!-- Node39 -->
<g id="node40" class="node">
<title>Node39</title>
<g id="a_node40"><a xlink:href="packet__io__stats_8h.html" target="_top" xlink:title="ODP packet IO stats. ">
<polygon fill="#ffffff" stroke="#000000" points="336,-537.5 336,-556.5 464,-556.5 464,-537.5 336,-537.5"/>
<text text-anchor="middle" x="400" y="-544.5" font-family="Helvetica,sans-Serif" font-size="10.00" fill="#000000">odp/api/packet_io_stats.h</text>
</a>
</g>
</g>
<!-- Node38&#45;&gt;Node39 -->
<g id="edge81" class="edge">
<title>Node38&#45;&gt;Node39</title>
<path fill="none" stroke="#191970" d="M696.3205,-705.4909C680.8359,-697.3314 659.3783,-684.4586 644,-669 615.8243,-640.6772 628.5381,-616.1802 596,-593 576.2667,-578.942 520.4231,-566.6193 473.3683,-558.2754"/>
<polygon fill="#191970" stroke="#191970" points="473.9285,-554.8204 463.4768,-556.5561 472.7297,-561.717 473.9285,-554.8204"/>
</g>
<!-- Node40 -->
<g id="node41" class="node">
<title>Node40</title>
<g id="a_node41"><a xlink:href="spec_2packet__io__stats_8h.html" target="_top" xlink:title="ODP Packet IO. ">
<polygon fill="#ffffff" stroke="#000000" points="634,-56.5 634,-86.5 738,-86.5 738,-56.5 634,-56.5"/>
<text text-anchor="start" x="642" y="-74.5" font-family="Helvetica,sans-Serif" font-size="10.00" fill="#000000">odp/api/spec/packet</text>
<text text-anchor="middle" x="686" y="-63.5" font-family="Helvetica,sans-Serif" font-size="10.00" fill="#000000">_io_stats.h</text>
</a>
</g>
</g>
<!-- Node39&#45;&gt;Node40 -->
<g id="edge82" class="edge">
<title>Node39&#45;&gt;Node40</title>
<path fill="none" stroke="#191970" d="M401.8759,-537.3236C409.632,-500.095 442.8318,-365.0455 527,-302 593.6933,-252.044 633.2818,-296.058 711,-266 726.9954,-259.8137 728.8769,-254.0879 744,-246 777.313,-228.1841 800.718,-241.8717 821,-210 851.8871,-161.4631 780.9584,-115.8566 730.6652,-90.9994"/>
<polygon fill="#191970" stroke="#191970" points="732.0716,-87.792 721.5437,-86.6035 729.0326,-94.0979 732.0716,-87.792"/>
</g>
<!-- Node40&#45;&gt;Node1 -->
<g id="edge83" class="edge">
<title>Node40&#45;&gt;Node1</title>
<path fill="none" stroke="#191970" d="M633.9877,-56.691C597.0622,-46.1774 548.0675,-32.2275 513.2741,-22.3211"/>
<polygon fill="#191970" stroke="#191970" points="513.9871,-18.8851 503.4109,-19.5128 512.0702,-25.6175 513.9871,-18.8851"/>
</g>
<!-- Node40&#45;&gt;Node10 -->
<g id="edge84" class="edge">
<title>Node40&#45;&gt;Node10</title>
<path fill="none" stroke="#191970" d="M738.1301,-57.695C741.1214,-57.0773 744.0934,-56.5058 747,-56 896.1904,-30.0392 1074.2566,-17.7799 1165.5098,-12.8346"/>
<polygon fill="#191970" stroke="#191970" points="1165.8666,-16.3207 1175.6669,-12.2951 1165.4953,-9.3305 1165.8666,-16.3207"/>
</g>
<!-- Node41&#45;&gt;Node3 -->
<g id="edge90" class="edge">
<title>Node41&#45;&gt;Node3</title>
<path fill="none" stroke="#191970" d="M359.1552,-891.9263C514.4123,-886.1683 936.197,-869.0153 1074,-848 1196.2263,-829.3602 1226.3034,-818.8711 1344,-781 1483.3732,-736.154 1650,-805.4106 1650,-659 1650,-659 1650,-659 1650,-435 1650,-397.344 1577.4298,-321.1386 1545,-302 1512.1307,-282.602 1470.8668,-271.1675 1437.3416,-264.5508"/>
<polygon fill="#191970" stroke="#191970" points="1437.6774,-261.0528 1427.2035,-262.6485 1436.3864,-267.9327 1437.6774,-261.0528"/>
</g>
<!-- Node41&#45;&gt;Node11 -->
<g id="edge93" class="edge">
<title>Node41&#45;&gt;Node11</title>
<path fill="none" stroke="#191970" d="M359.3223,-892.9342C604.1222,-886.9168 1536,-847.9254 1536,-603 1536,-603 1536,-603 1536,-491 1536,-456.2434 1518.0481,-419.0613 1505.6174,-397.4811"/>
<polygon fill="#191970" stroke="#191970" points="1508.5177,-395.5116 1500.3789,-388.7285 1502.5113,-399.1065 1508.5177,-395.5116"/>
</g>
<!-- Node41&#45;&gt;Node14 -->
<g id="edge91" class="edge">
<title>Node41&#45;&gt;Node14</title>
<path fill="none" stroke="#191970" d="M266.0654,-884.3996C218.714,-869.0119 140,-833.9632 140,-771 140,-771 140,-771 140,-715 140,-551.1856 342.3026,-655.7591 473,-557 505.9173,-532.1266 583.1824,-436.7487 614.9657,-396.7822"/>
<polygon fill="#191970" stroke="#191970" points="617.8879,-398.7301 621.3577,-388.7195 612.4025,-394.3814 617.8879,-398.7301"/>
</g>
<!-- Node41&#45;&gt;Node17 -->
<g id="edge95" class="edge">
<title>Node41&#45;&gt;Node17</title>
<path fill="none" stroke="#191970" d="M298.5312,-884.4161C291.5226,-854.9649 274.2887,-764.2011 311,-705 338.3048,-660.9678 392.4822,-631.8876 428.7382,-616.4246"/>
<polygon fill="#191970" stroke="#191970" points="430.0875,-619.6541 437.9965,-612.6044 427.4175,-613.1833 430.0875,-619.6541"/>
</g>
<!-- Node41&#45;&gt;Node22 -->
<g id="edge94" class="edge">
<title>Node41&#45;&gt;Node22</title>
<path fill="none" stroke="#191970" d="M242.8133,-884.9233C198.6685,-876.9275 142.8041,-864.0628 126,-848 100.0879,-823.231 102,-806.846 102,-771 102,-771 102,-771 102,-603 102,-514.001 181.6807,-430.4685 219.5077,-395.8274"/>
<polygon fill="#191970" stroke="#191970" points="222.209,-398.1063 227.3195,-388.8254 217.5368,-392.8937 222.209,-398.1063"/>
</g>
<!-- Node41&#45;&gt;Node37 -->
<g id="edge92" class="edge">
<title>Node41&#45;&gt;Node37</title>
<path fill="none" stroke="#191970" d="M300.0299,-884.3715C298.8946,-869.4024 298.1638,-839.8915 307,-817 320.1978,-782.8092 348.7981,-750.6556 367.72,-731.9028"/>
<polygon fill="#191970" stroke="#191970" points="370.3983,-734.1821 375.1636,-724.7195 365.5374,-729.1451 370.3983,-734.1821"/>
</g>
<!-- Node42 -->
<g id="node43" class="node">
<title>Node42</title>
<g id="a_node43"><a xlink:href="api_2spec_2classification_8h.html" target="_top" xlink:title="ODP classification descriptor. ">
<polygon fill="#ffffff" stroke="#000000" points="316,-823 316,-842 456,-842 456,-823 316,-823"/>
<text text-anchor="middle" x="386" y="-830" font-family="Helvetica,sans-Serif" font-size="10.00" fill="#000000">odp/api/spec/classification.h</text>
</a>
</g>
</g>
<!-- Node41&#45;&gt;Node42 -->
<g id="edge96" class="edge">
<title>Node41&#45;&gt;Node42</title>
<path fill="none" stroke="#191970" d="M314.2813,-884.3906C327.7548,-874.6421 348.822,-859.3994 364.6435,-847.9521"/>
<polygon fill="#191970" stroke="#191970" points="366.7619,-850.7394 372.812,-842.0419 362.6586,-845.0682 366.7619,-850.7394"/>
</g>
<!-- Node42&#45;&gt;Node1 -->
<g id="edge97" class="edge">
<title>Node42&#45;&gt;Node1</title>
<path fill="none" stroke="#191970" d="M362.7332,-822.8353C343.0232,-813.9031 314.7421,-799.268 294,-781 150.4452,-654.5681 38,-626.2929 38,-435 38,-435 38,-435 38,-133 38,-89.0629 61.6176,-77.3836 100,-56 151.1138,-27.5235 314.5529,-16.3263 406.1829,-12.2048"/>
<polygon fill="#191970" stroke="#191970" points="406.6078,-15.6897 416.4465,-11.7592 406.3041,-8.6963 406.6078,-15.6897"/>
</g>
<!-- Node42&#45;&gt;Node10 -->
<g id="edge105" class="edge">
<title>Node42&#45;&gt;Node10</title>
<path fill="none" stroke="#191970" d="M456.001,-830.2149C585.6717,-825.3862 871.8212,-811.9388 1111,-781 1244.216,-763.768 1278.047,-758.9952 1408,-725 1564.6953,-684.0091 1726,-708.9681 1726,-547 1726,-547 1726,-547 1726,-379 1726,-323.957 1677.4006,-328.2127 1629,-302 1572.1508,-271.2117 1406.8647,-245.7539 1353,-210 1322.6941,-189.8838 1261.8369,-119.2433 1245,-87 1235.5635,-68.9287 1230.6868,-46.0038 1228.2521,-29.8848"/>
<polygon fill="#191970" stroke="#191970" points="1231.6619,-28.9717 1226.8805,-19.5171 1224.7223,-29.8898 1231.6619,-28.9717"/>
</g>
<!-- Node42&#45;&gt;Node31 -->
<g id="edge99" class="edge">
<title>Node42&#45;&gt;Node31</title>
<path fill="none" stroke="#191970" d="M369.7732,-822.8266C354.7458,-813.3713 332.3227,-797.9567 316,-781 274.2811,-737.6607 264.4692,-723.9547 240,-669 187.8664,-551.9148 186.4459,-516.2332 171,-389 157.9632,-281.6117 273.2048,-185.0873 323.3839,-148.5318"/>
<polygon fill="#191970" stroke="#191970" points="325.5751,-151.2678 331.6769,-142.6065 321.5056,-145.5723 325.5751,-151.2678"/>
</g>
<!-- Node42&#45;&gt;Node36 -->
<g id="edge98" class="edge">
<title>Node42&#45;&gt;Node36</title>
<path fill="none" stroke="#191970" d="M412.5625,-822.8906C441.5056,-812.42 487.9694,-795.6111 520.1356,-783.9745"/>
<polygon fill="#191970" stroke="#191970" points="521.4111,-787.2351 529.624,-780.5419 519.0298,-780.6526 521.4111,-787.2351"/>
</g>
<!-- Node43 -->
<g id="node44" class="node">
<title>Node43</title>
<g id="a_node44"><a xlink:href="threshold_8h.html" target="_top" xlink:title="ODP threshold API &#45; platform specific header. ">
<polygon fill="#ffffff" stroke="#000000" points="1003.5,-761.5 1003.5,-780.5 1102.5,-780.5 1102.5,-761.5 1003.5,-761.5"/>
<text text-anchor="middle" x="1053" y="-768.5" font-family="Helvetica,sans-Serif" font-size="10.00" fill="#000000">odp/api/threshold.h</text>
</a>
</g>
</g>
<!-- Node42&#45;&gt;Node43 -->
<g id="edge100" class="edge">
<title>Node42&#45;&gt;Node43</title>
<path fill="none" stroke="#191970" d="M456.12,-826.0347C587.8772,-813.8861 870.2163,-787.8534 993.4316,-776.4924"/>
<polygon fill="#191970" stroke="#191970" points="993.8027,-779.9732 1003.4391,-775.5697 993.16,-773.0027 993.8027,-779.9732"/>
</g>
<!-- Node44 -->
<g id="node45" class="node">
<title>Node44</title>
<g id="a_node45"><a xlink:href="spec_2threshold_8h.html" target="_top" xlink:title="ODP threshold descriptor. ">
<polygon fill="#ffffff" stroke="#000000" points="1148.5,-308 1148.5,-327 1271.5,-327 1271.5,-308 1148.5,-308"/>
<text text-anchor="middle" x="1210" y="-315" font-family="Helvetica,sans-Serif" font-size="10.00" fill="#000000">odp/api/spec/threshold.h</text>
</a>
</g>
</g>
<!-- Node43&#45;&gt;Node44 -->
<g id="edge101" class="edge">
<title>Node43&#45;&gt;Node44</title>
<path fill="none" stroke="#191970" d="M1102.6069,-767.4035C1162.1405,-762.1534 1264.5105,-750.1376 1349,-725 1406.9597,-707.7556 1424.9242,-705.6798 1473,-669 1528.9638,-626.302 1574,-617.3922 1574,-547 1574,-547 1574,-547 1574,-435 1574,-404.4754 1577.9619,-389.1123 1555,-369 1515.412,-334.3249 1370.5592,-322.995 1281.6199,-319.2942"/>
<polygon fill="#191970" stroke="#191970" points="1281.7252,-315.7957 1271.5952,-318.8994 1281.4497,-322.7903 1281.7252,-315.7957"/>
</g>
<!-- Node44&#45;&gt;Node1 -->
<g id="edge102" class="edge">
<title>Node44&#45;&gt;Node1</title>
<path fill="none" stroke="#191970" d="M1148.7046,-307.9703C1133.1694,-305.779 1116.4935,-303.6196 1101,-302 1041.6338,-295.794 611.071,-303.9516 565,-266 539.6214,-245.094 546,-227.3806 546,-194.5 546,-194.5 546,-194.5 546,-133 546,-89.4388 511.0757,-48.4145 488.5765,-26.5053"/>
<polygon fill="#191970" stroke="#191970" points="490.8962,-23.8822 481.2141,-19.5801 486.1001,-28.981 490.8962,-23.8822"/>
</g>
<!-- Node44&#45;&gt;Node3 -->
<g id="edge103" class="edge">
<title>Node44&#45;&gt;Node3</title>
<path fill="none" stroke="#191970" d="M1235.9375,-307.8906C1264.0778,-297.4652 1309.1793,-280.7559 1340.5726,-269.1252"/>
<polygon fill="#191970" stroke="#191970" points="1342.0834,-272.298 1350.2446,-265.5419 1339.6515,-265.734 1342.0834,-272.298"/>
</g>
<!-- Node44&#45;&gt;Node10 -->
<g id="edge104" class="edge">
<title>Node44&#45;&gt;Node10</title>
<path fill="none" stroke="#191970" d="M1206.2447,-307.9171C1199.2012,-289.3698 1184.2452,-247.119 1179,-210 1169.4614,-142.4972 1200.3653,-64.3052 1216.639,-29.0135"/>
<polygon fill="#191970" stroke="#191970" points="1219.8537,-30.403 1220.9777,-19.8679 1213.5293,-27.4027 1219.8537,-30.403"/>
</g>
<!-- Node46 -->
<g id="node47" class="node">
<title>Node46</title>
<polygon fill="#ffffff" stroke="#bfbfbf" points="1738,-817.5 1738,-847.5 1830,-847.5 1830,-817.5 1738,-817.5"/>
<text text-anchor="start" x="1746" y="-835.5" font-family="Helvetica,sans-Serif" font-size="10.00" fill="#000000">odp/api/abi/traffic</text>
<text text-anchor="middle" x="1784" y="-824.5" font-family="Helvetica,sans-Serif" font-size="10.00" fill="#000000">_mngr.h</text>
</g>
<!-- Node45&#45;&gt;Node46 -->
<g id="edge107" class="edge">
<title>Node45&#45;&gt;Node46</title>
<path fill="none" stroke="#191970" d="M1687.8125,-884.3906C1703.6696,-875.8361 1727.3691,-863.0509 1747.2752,-852.3121"/>
<polygon fill="#191970" stroke="#191970" points="1748.9732,-855.3729 1756.1125,-847.5446 1745.6497,-849.2122 1748.9732,-855.3729"/>
</g>
<!-- Node47 -->
<g id="node48" class="node">
<title>Node47</title>
<g id="a_node48"><a xlink:href="api_2spec_2traffic__mngr_8h.html" target="_top" xlink:title="Copyright (c) 2015&#45;2018, Linaro Limited All rights reserved. ">
<polygon fill="#ffffff" stroke="#000000" points="1620,-817.5 1620,-847.5 1720,-847.5 1720,-817.5 1620,-817.5"/>
<text text-anchor="start" x="1628" y="-835.5" font-family="Helvetica,sans-Serif" font-size="10.00" fill="#000000">odp/api/spec/traffic</text>
<text text-anchor="middle" x="1670" y="-824.5" font-family="Helvetica,sans-Serif" font-size="10.00" fill="#000000">_mngr.h</text>
</a>
</g>
</g>
<!-- Node45&#45;&gt;Node47 -->
<g id="edge108" class="edge">
<title>Node45&#45;&gt;Node47</title>
<path fill="none" stroke="#191970" d="M1670,-884.3906C1670,-877.2234 1670,-867.0862 1670,-857.671"/>
<polygon fill="#191970" stroke="#191970" points="1673.5001,-857.5446 1670,-847.5446 1666.5001,-857.5446 1673.5001,-857.5446"/>
</g>
<!-- Node47&#45;&gt;Node1 -->
<g id="edge109" class="edge">
<title>Node47&#45;&gt;Node1</title>
<path fill="none" stroke="#191970" d="M1619.6726,-831.965C1424.4437,-829.6307 717.0984,-818.6997 496,-781 411.3156,-766.5604 380.2113,-775.8896 311,-725 279.6166,-701.9245 114,-473.9538 114,-435 114,-435 114,-435 114,-133 114,-76.5538 163.3434,-78.7546 215,-56 248.4602,-41.2608 342.242,-26.6928 406.249,-18.0213"/>
<polygon fill="#191970" stroke="#191970" points="406.8057,-21.478 416.2523,-16.681 405.8761,-14.54 406.8057,-21.478"/>
</g>
<!-- Node47&#45;&gt;Node3 -->
<g id="edge110" class="edge">
<title>Node47&#45;&gt;Node3</title>
<path fill="none" stroke="#191970" d="M1673.8173,-817.4031C1679.1011,-795.1463 1688,-752.1471 1688,-715 1688,-715 1688,-715 1688,-435 1688,-361.0444 1653.9998,-335.3686 1588,-302 1540.604,-278.0372 1481.0968,-266.5162 1437.2025,-261.001"/>
<polygon fill="#191970" stroke="#191970" points="1437.5853,-257.522 1427.2423,-259.8185 1436.7599,-264.4732 1437.5853,-257.522"/>
</g>
<!-- Node47&#45;&gt;Node10 -->
<g id="edge112" class="edge">
<title>Node47&#45;&gt;Node10</title>
<path fill="none" stroke="#191970" d="M1693.7202,-817.3631C1721.5669,-797.5287 1764,-759.933 1764,-715 1764,-715 1764,-715 1764,-133 1764,-35.9043 1426.7783,-15.4549 1286.2991,-11.1486"/>
<polygon fill="#191970" stroke="#191970" points="1286.2276,-7.6451 1276.1306,-10.8546 1286.0253,-14.6422 1286.2276,-7.6451"/>
</g>
<!-- Node47&#45;&gt;Node36 -->
<g id="edge111" class="edge">
<title>Node47&#45;&gt;Node36</title>
<path fill="none" stroke="#191970" d="M1619.9696,-829.738C1438.4172,-819.7151 814.6149,-785.2772 616.7363,-774.353"/>
<polygon fill="#191970" stroke="#191970" points="616.7064,-770.8461 606.5286,-773.7895 616.3205,-777.8355 616.7064,-770.8461"/>
</g>
</g>
</svg>
