<?xml version="1.0" encoding="UTF-8" standalone="no"?>
<!DOCTYPE svg PUBLIC "-//W3C//DTD SVG 1.1//EN"
 "http://www.w3.org/Graphics/SVG/1.1/DTD/svg11.dtd">
<!-- Generated by graphviz version 2.40.1 (20161225.0304)
 -->
<!-- Title: odph_api.h Pages: 1 -->
<svg width="1868pt" height="196pt"
 viewBox="0.00 0.00 1867.50 196.00" xmlns="http://www.w3.org/2000/svg" xmlns:xlink="http://www.w3.org/1999/xlink">
<g id="graph0" class="graph" transform="scale(1 1) rotate(0) translate(4 192)">
<title>odph_api.h</title>
<polygon fill="#ffffff" stroke="transparent" points="-4,4 -4,-192 1863.5,-192 1863.5,4 -4,4"/>
<!-- Node0 -->
<g id="node1" class="node">
<title>Node0</title>
<polygon fill="#bfbfbf" stroke="#000000" points="1097.5,-168.5 1097.5,-187.5 1161.5,-187.5 1161.5,-168.5 1097.5,-168.5"/>
<text text-anchor="middle" x="1129.5" y="-175.5" font-family="Helvetica,sans-Serif" font-size="10.00" fill="#000000">odph_api.h</text>
</g>
<!-- Node1 -->
<g id="node2" class="node">
<title>Node1</title>
<g id="a_node2"><a xlink:href="odph__debug_8h.html" target="_top" xlink:title="Helper debug. ">
<polygon fill="#ffffff" stroke="#000000" points="123,-112.5 123,-131.5 248,-131.5 248,-112.5 123,-112.5"/>
<text text-anchor="middle" x="185.5" y="-119.5" font-family="Helvetica,sans-Serif" font-size="10.00" fill="#000000">odp/helper/odph_debug.h</text>
</a>
</g>
</g>
<!-- Node0&#45;&gt;Node1 -->
<g id="edge1" class="edge">
<title>Node0&#45;&gt;Node1</title>
<path fill="none" stroke="#191970" d="M1097.2702,-176.9249C984.2579,-173.0144 595.5004,-158.3746 275.5,-132 270.0162,-131.548 264.3496,-131.0327 258.6527,-130.4798"/>
<polygon fill="#191970" stroke="#191970" points="258.6982,-126.9669 248.3984,-129.4496 257.9984,-133.9318 258.6982,-126.9669"/>
</g>
<!-- Node5 -->
<g id="node6" class="node">
<title>Node5</title>
<g id="a_node6"><a xlink:href="chksum_8h.html" target="_top" xlink:title="ODP checksum helper. ">
<polygon fill="#ffffff" stroke="#000000" points="1076,-56.5 1076,-75.5 1183,-75.5 1183,-56.5 1076,-56.5"/>
<text text-anchor="middle" x="1129.5" y="-63.5" font-family="Helvetica,sans-Serif" font-size="10.00" fill="#000000">odp/helper/chksum.h</text>
</a>
</g>
</g>
<!-- Node0&#45;&gt;Node5 -->
<g id="edge5" class="edge">
<title>Node0&#45;&gt;Node5</title>
<path fill="none" stroke="#191970" d="M1129.5,-168.4509C1129.5,-150.184 1129.5,-109.9553 1129.5,-85.6976"/>
<polygon fill="#191970" stroke="#191970" points="1133.0001,-85.5249 1129.5,-75.5249 1126.0001,-85.5249 1133.0001,-85.5249"/>
</g>
<!-- Node7 -->
<g id="node8" class="node">
<title>Node7</title>
<g id="a_node8"><a xlink:href="odph__cuckootable_8h.html" target="_top" xlink:title="ODP Cuckoo Hash Table. ">
<polygon fill="#ffffff" stroke="#000000" points="689.5,-112.5 689.5,-131.5 841.5,-131.5 841.5,-112.5 689.5,-112.5"/>
<text text-anchor="middle" x="765.5" y="-119.5" font-family="Helvetica,sans-Serif" font-size="10.00" fill="#000000">odp/helper/odph_cuckootable.h</text>
</a>
</g>
</g>
<!-- Node0&#45;&gt;Node7 -->
<g id="edge7" class="edge">
<title>Node0&#45;&gt;Node7</title>
<path fill="none" stroke="#191970" d="M1097.1974,-173.0304C1039.3328,-164.1281 916.6927,-145.2604 837.8404,-133.1293"/>
<polygon fill="#191970" stroke="#191970" points="837.9101,-129.5989 827.4941,-131.5376 836.8456,-136.5175 837.9101,-129.5989"/>
</g>
<!-- Node8 -->
<g id="node9" class="node">
<title>Node8</title>
<g id="a_node9"><a xlink:href="table_8h.html" target="_top" xlink:title="ODP table. ">
<polygon fill="#ffffff" stroke="#000000" points="546.5,-56.5 546.5,-75.5 640.5,-75.5 640.5,-56.5 546.5,-56.5"/>
<text text-anchor="middle" x="593.5" y="-63.5" font-family="Helvetica,sans-Serif" font-size="10.00" fill="#000000">odp/helper/table.h</text>
</a>
</g>
</g>
<!-- Node0&#45;&gt;Node8 -->
<g id="edge33" class="edge">
<title>Node0&#45;&gt;Node8</title>
<path fill="none" stroke="#191970" d="M1097.0816,-177.3237C952.5239,-174.1537 372.6581,-159.74 346.5,-132 340.4017,-125.5329 340.8191,-118.8366 346.5,-112 370.1501,-83.5388 470.9534,-72.5978 536.2488,-68.4554"/>
<polygon fill="#191970" stroke="#191970" points="536.6333,-71.9387 546.4062,-67.8473 536.2149,-64.9512 536.6333,-71.9387"/>
</g>
<!-- Node10 -->
<g id="node11" class="node">
<title>Node10</title>
<g id="a_node11"><a xlink:href="strong__types_8h.html" target="_top" xlink:title="ODP Strong Types. ">
<polygon fill="#ffffff" stroke="#000000" points="426,-.5 426,-19.5 555,-19.5 555,-.5 426,-.5"/>
<text text-anchor="middle" x="490.5" y="-7.5" font-family="Helvetica,sans-Serif" font-size="10.00" fill="#000000">odp/helper/strong_types.h</text>
</a>
</g>
</g>
<!-- Node0&#45;&gt;Node10 -->
<g id="edge30" class="edge">
<title>Node0&#45;&gt;Node10</title>
<path fill="none" stroke="#191970" d="M1097.2381,-177.347C952.0258,-174.2541 364.9623,-160.0459 338.5,-132 295.9132,-86.8646 392.3463,-43.7878 450.4751,-22.9831"/>
<polygon fill="#191970" stroke="#191970" points="451.8616,-26.2061 460.1446,-19.5998 449.5497,-19.5988 451.8616,-26.2061"/>
</g>
<!-- Node11 -->
<g id="node12" class="node">
<title>Node11</title>
<g id="a_node12"><a xlink:href="eth_8h.html" target="_top" xlink:title="ODP ethernet header. ">
<polygon fill="#ffffff" stroke="#000000" points="1429.5,-56.5 1429.5,-75.5 1515.5,-75.5 1515.5,-56.5 1429.5,-56.5"/>
<text text-anchor="middle" x="1472.5" y="-63.5" font-family="Helvetica,sans-Serif" font-size="10.00" fill="#000000">odp/helper/eth.h</text>
</a>
</g>
</g>
<!-- Node0&#45;&gt;Node11 -->
<g id="edge11" class="edge">
<title>Node0&#45;&gt;Node11</title>
<path fill="none" stroke="#191970" d="M1161.75,-176.4917C1249.1623,-172.0756 1485.6165,-157.8289 1508.5,-132 1521.6933,-117.1086 1506.412,-96.5514 1491.8878,-82.3551"/>
<polygon fill="#191970" stroke="#191970" points="1494.2459,-79.7686 1484.5164,-75.5749 1489.507,-84.9207 1494.2459,-79.7686"/>
</g>
<!-- Node12 -->
<g id="node13" class="node">
<title>Node12</title>
<g id="a_node13"><a xlink:href="odph__hashtable_8h.html" target="_top" xlink:title="ODP Hash Table. ">
<polygon fill="#ffffff" stroke="#000000" points="356,-112.5 356,-131.5 497,-131.5 497,-112.5 356,-112.5"/>
<text text-anchor="middle" x="426.5" y="-119.5" font-family="Helvetica,sans-Serif" font-size="10.00" fill="#000000">odp/helper/odph_hashtable.h</text>
</a>
</g>
</g>
<!-- Node0&#45;&gt;Node12 -->
<g id="edge13" class="edge">
<title>Node0&#45;&gt;Node12</title>
<path fill="none" stroke="#191970" d="M1097.3524,-176.2029C1006.5204,-171.0027 740.0205,-154.9017 507.1611,-132.0183"/>
<polygon fill="#191970" stroke="#191970" points="507.4444,-128.5293 497.1485,-131.028 506.7554,-135.4953 507.4444,-128.5293"/>
</g>
<!-- Node13 -->
<g id="node14" class="node">
<title>Node13</title>
<g id="a_node14"><a xlink:href="icmp_8h.html" target="_top" xlink:title="ODP ICMP header. ">
<polygon fill="#ffffff" stroke="#000000" points="1765.5,-56.5 1765.5,-75.5 1859.5,-75.5 1859.5,-56.5 1765.5,-56.5"/>
<text text-anchor="middle" x="1812.5" y="-63.5" font-family="Helvetica,sans-Serif" font-size="10.00" fill="#000000">odp/helper/icmp.h</text>
</a>
</g>
</g>
<!-- Node0&#45;&gt;Node13 -->
<g id="edge15" class="edge">
<title>Node0&#45;&gt;Node13</title>
<path fill="none" stroke="#191970" d="M1161.6509,-176.9414C1262.8819,-173.3461 1574.037,-160.2247 1670.5,-132 1688.8173,-126.6404 1691.3185,-120.3093 1708.5,-112 1732.2824,-100.4983 1759.6165,-88.4529 1780.2919,-79.5744"/>
<polygon fill="#191970" stroke="#191970" points="1781.7526,-82.7564 1789.5735,-75.6091 1779.0024,-76.3193 1781.7526,-82.7564"/>
</g>
<!-- Node14 -->
<g id="node15" class="node">
<title>Node14</title>
<g id="a_node15"><a xlink:href="ip_8h.html" target="_top" xlink:title="ODP IP header. ">
<polygon fill="#ffffff" stroke="#000000" points="1021.5,-112.5 1021.5,-131.5 1101.5,-131.5 1101.5,-112.5 1021.5,-112.5"/>
<text text-anchor="middle" x="1061.5" y="-119.5" font-family="Helvetica,sans-Serif" font-size="10.00" fill="#000000">odp/helper/ip.h</text>
</a>
</g>
</g>
<!-- Node0&#45;&gt;Node14 -->
<g id="edge17" class="edge">
<title>Node0&#45;&gt;Node14</title>
<path fill="none" stroke="#191970" d="M1117.6553,-168.2455C1107.612,-159.9746 1093.0005,-147.9416 1081.1996,-138.2232"/>
<polygon fill="#191970" stroke="#191970" points="1083.1533,-135.298 1073.209,-131.6427 1078.7033,-140.7015 1083.1533,-135.298"/>
</g>
<!-- Node16 -->
<g id="node17" class="node">
<title>Node16</title>
<g id="a_node17"><a xlink:href="ipsec_8h.html" target="_top" xlink:title="ODP IPSec headers. ">
<polygon fill="#ffffff" stroke="#000000" points="1239.5,-56.5 1239.5,-75.5 1335.5,-75.5 1335.5,-56.5 1239.5,-56.5"/>
<text text-anchor="middle" x="1287.5" y="-63.5" font-family="Helvetica,sans-Serif" font-size="10.00" fill="#000000">odp/helper/ipsec.h</text>
</a>
</g>
</g>
<!-- Node0&#45;&gt;Node16 -->
<g id="edge21" class="edge">
<title>Node0&#45;&gt;Node16</title>
<path fill="none" stroke="#191970" d="M1161.7109,-173.1968C1189.4794,-167.5734 1229.1481,-155.8065 1255.5,-132 1269.1865,-119.6355 1277.6295,-100.1343 1282.3811,-85.5304"/>
<polygon fill="#191970" stroke="#191970" points="1285.7394,-86.5158 1285.2107,-75.9342 1279.0253,-84.5359 1285.7394,-86.5158"/>
</g>
<!-- Node17 -->
<g id="node18" class="node">
<title>Node17</title>
<g id="a_node18"><a xlink:href="odph__lineartable_8h.html" target="_top" xlink:title="ODP Linear Table. ">
<polygon fill="#ffffff" stroke="#000000" points="860,-112.5 860,-131.5 1003,-131.5 1003,-112.5 860,-112.5"/>
<text text-anchor="middle" x="931.5" y="-119.5" font-family="Helvetica,sans-Serif" font-size="10.00" fill="#000000">odp/helper/odph_lineartable.h</text>
</a>
</g>
</g>
<!-- Node0&#45;&gt;Node17 -->
<g id="edge23" class="edge">
<title>Node0&#45;&gt;Node17</title>
<path fill="none" stroke="#191970" d="M1097.2472,-168.878C1064.0929,-159.501 1012.244,-144.8367 975.3722,-134.4083"/>
<polygon fill="#191970" stroke="#191970" points="975.9727,-130.9409 965.3976,-131.5872 974.0676,-137.6767 975.9727,-130.9409"/>
</g>
<!-- Node18 -->
<g id="node19" class="node">
<title>Node18</title>
<g id="a_node19"><a xlink:href="odph__iplookuptable_8h.html" target="_top" xlink:title="ODP IP Lookup Table. ">
<polygon fill="#ffffff" stroke="#000000" points="515.5,-112.5 515.5,-131.5 671.5,-131.5 671.5,-112.5 515.5,-112.5"/>
<text text-anchor="middle" x="593.5" y="-119.5" font-family="Helvetica,sans-Serif" font-size="10.00" fill="#000000">odp/helper/odph_iplookuptable.h</text>
</a>
</g>
</g>
<!-- Node0&#45;&gt;Node18 -->
<g id="edge26" class="edge">
<title>Node0&#45;&gt;Node18</title>
<path fill="none" stroke="#191970" d="M1097.3634,-174.8451C1025.155,-167.7267 844.3111,-149.7348 681.9239,-132.1446"/>
<polygon fill="#191970" stroke="#191970" points="682.0688,-128.6398 671.7495,-131.0403 681.3134,-135.599 682.0688,-128.6398"/>
</g>
<!-- Node19 -->
<g id="node20" class="node">
<title>Node19</title>
<g id="a_node20"><a xlink:href="sctp_8h.html" target="_top" xlink:title="ODP SCTP header. ">
<polygon fill="#ffffff" stroke="#000000" points="1303.5,-112.5 1303.5,-131.5 1395.5,-131.5 1395.5,-112.5 1303.5,-112.5"/>
<text text-anchor="middle" x="1349.5" y="-119.5" font-family="Helvetica,sans-Serif" font-size="10.00" fill="#000000">odp/helper/sctp.h</text>
</a>
</g>
</g>
<!-- Node0&#45;&gt;Node19 -->
<g id="edge28" class="edge">
<title>Node0&#45;&gt;Node19</title>
<path fill="none" stroke="#191970" d="M1161.9618,-169.737C1199.0308,-160.3013 1260.0025,-144.7812 1302.3182,-134.0099"/>
<polygon fill="#191970" stroke="#191970" points="1303.2862,-137.3752 1312.1138,-131.5165 1301.5594,-130.5915 1303.2862,-137.3752"/>
</g>
<!-- Node20 -->
<g id="node21" class="node">
<title>Node20</title>
<g id="a_node21"><a xlink:href="tcp_8h.html" target="_top" xlink:title="ODP TCP header. ">
<polygon fill="#ffffff" stroke="#000000" points="1413.5,-112.5 1413.5,-131.5 1499.5,-131.5 1499.5,-112.5 1413.5,-112.5"/>
<text text-anchor="middle" x="1456.5" y="-119.5" font-family="Helvetica,sans-Serif" font-size="10.00" fill="#000000">odp/helper/tcp.h</text>
</a>
</g>
</g>
<!-- Node0&#45;&gt;Node20 -->
<g id="edge31" class="edge">
<title>Node0&#45;&gt;Node20</title>
<path fill="none" stroke="#191970" d="M1161.72,-172.8703C1211.3674,-164.9095 1309.8088,-148.9016 1403.4622,-132.1552"/>
<polygon fill="#191970" stroke="#191970" points="1404.1601,-135.5859 1413.3848,-130.3748 1402.9238,-128.696 1404.1601,-135.5859"/>
</g>
<!-- Node21 -->
<g id="node22" class="node">
<title>Node21</title>
<g id="a_node22"><a xlink:href="threads_8h.html" target="_top" xlink:title="ODP Linux helper API. ">
<polygon fill="#ffffff" stroke="#000000" points="1556,-112.5 1556,-131.5 1661,-131.5 1661,-112.5 1556,-112.5"/>
<text text-anchor="middle" x="1608.5" y="-119.5" font-family="Helvetica,sans-Serif" font-size="10.00" fill="#000000">odp/helper/threads.h</text>
</a>
</g>
</g>
<!-- Node0&#45;&gt;Node21 -->
<g id="edge34" class="edge">
<title>Node0&#45;&gt;Node21</title>
<path fill="none" stroke="#191970" d="M1161.6015,-174.824C1231.0089,-167.8675 1400.1915,-150.4276 1541.5,-132 1542.9578,-131.8099 1544.4329,-131.6145 1545.9202,-131.4148"/>
<polygon fill="#191970" stroke="#191970" points="1546.4306,-134.8777 1555.8589,-130.0446 1545.4746,-127.9433 1546.4306,-134.8777"/>
</g>
<!-- Node25 -->
<g id="node26" class="node">
<title>Node25</title>
<g id="a_node26"><a xlink:href="udp_8h.html" target="_top" xlink:title="ODP UDP header. ">
<polygon fill="#ffffff" stroke="#000000" points="1158,-112.5 1158,-131.5 1247,-131.5 1247,-112.5 1158,-112.5"/>
<text text-anchor="middle" x="1202.5" y="-119.5" font-family="Helvetica,sans-Serif" font-size="10.00" fill="#000000">odp/helper/udp.h</text>
</a>
</g>
</g>
<!-- Node0&#45;&gt;Node25 -->
<g id="edge39" class="edge">
<title>Node0&#45;&gt;Node25</title>
<path fill="none" stroke="#191970" d="M1142.2156,-168.2455C1153.102,-159.8943 1168.9883,-147.7076 1181.72,-137.9408"/>
<polygon fill="#191970" stroke="#191970" points="1184.1261,-140.5063 1189.9301,-131.6427 1179.8654,-134.9523 1184.1261,-140.5063"/>
</g>
<!-- Node26 -->
<g id="node27" class="node">
<title>Node26</title>
<g id="a_node27"><a xlink:href="version_8h.html" target="_top" xlink:title="ODP helper version. ">
<polygon fill="#ffffff" stroke="#000000" points="1717.5,-112.5 1717.5,-131.5 1821.5,-131.5 1821.5,-112.5 1717.5,-112.5"/>
<text text-anchor="middle" x="1769.5" y="-119.5" font-family="Helvetica,sans-Serif" font-size="10.00" fill="#000000">odp/helper/version.h</text>
</a>
</g>
</g>
<!-- Node0&#45;&gt;Node26 -->
<g id="edge42" class="edge">
<title>Node0&#45;&gt;Node26</title>
<path fill="none" stroke="#191970" d="M1161.6268,-176.2212C1248.9096,-171.2167 1497.6801,-155.8096 1703.5,-132 1704.7628,-131.8539 1706.0385,-131.702 1707.3237,-131.545"/>
<polygon fill="#191970" stroke="#191970" points="1707.8378,-135.0078 1717.3067,-130.2549 1706.9405,-128.0655 1707.8378,-135.0078"/>
</g>
<!-- Node2 -->
<g id="node3" class="node">
<title>Node2</title>
<polygon fill="#ffffff" stroke="#bfbfbf" points="0,-56.5 0,-75.5 131,-75.5 131,-56.5 0,-56.5"/>
<text text-anchor="middle" x="65.5" y="-63.5" font-family="Helvetica,sans-Serif" font-size="10.00" fill="#000000">odp/autoheader_external.h</text>
</g>
<!-- Node1&#45;&gt;Node2 -->
<g id="edge2" class="edge">
<title>Node1&#45;&gt;Node2</title>
<path fill="none" stroke="#191970" d="M164.8713,-112.3733C145.6081,-103.3838 116.6514,-89.8706 94.9581,-79.7471"/>
<polygon fill="#191970" stroke="#191970" points="96.4015,-76.5584 85.8595,-75.5011 93.4413,-82.9017 96.4015,-76.5584"/>
</g>
<!-- Node3 -->
<g id="node4" class="node">
<title>Node3</title>
<polygon fill="#ffffff" stroke="#bfbfbf" points="149.5,-56.5 149.5,-75.5 195.5,-75.5 195.5,-56.5 149.5,-56.5"/>
<text text-anchor="middle" x="172.5" y="-63.5" font-family="Helvetica,sans-Serif" font-size="10.00" fill="#000000">stdio.h</text>
</g>
<!-- Node1&#45;&gt;Node3 -->
<g id="edge3" class="edge">
<title>Node1&#45;&gt;Node3</title>
<path fill="none" stroke="#191970" d="M183.2356,-112.2455C181.5206,-104.8579 179.1088,-94.4689 177.0056,-85.4087"/>
<polygon fill="#191970" stroke="#191970" points="180.4092,-84.5922 174.7385,-75.6427 173.5905,-86.1751 180.4092,-84.5922"/>
</g>
<!-- Node4 -->
<g id="node5" class="node">
<title>Node4</title>
<polygon fill="#ffffff" stroke="#bfbfbf" points="213.5,-56.5 213.5,-75.5 261.5,-75.5 261.5,-56.5 213.5,-56.5"/>
<text text-anchor="middle" x="237.5" y="-63.5" font-family="Helvetica,sans-Serif" font-size="10.00" fill="#000000">stdlib.h</text>
</g>
<!-- Node1&#45;&gt;Node4 -->
<g id="edge4" class="edge">
<title>Node1&#45;&gt;Node4</title>
<path fill="none" stroke="#191970" d="M194.5577,-112.2455C202.0142,-104.2155 212.7634,-92.6394 221.6417,-83.0781"/>
<polygon fill="#191970" stroke="#191970" points="224.3063,-85.3522 228.5461,-75.6427 219.1768,-80.589 224.3063,-85.3522"/>
</g>
<!-- Node6 -->
<g id="node7" class="node">
<title>Node6</title>
<polygon fill="#ffffff" stroke="#bfbfbf" points="1296,-.5 1296,-19.5 1355,-19.5 1355,-.5 1296,-.5"/>
<text text-anchor="middle" x="1325.5" y="-7.5" font-family="Helvetica,sans-Serif" font-size="10.00" fill="#000000">odp_api.h</text>
</g>
<!-- Node5&#45;&gt;Node6 -->
<g id="edge6" class="edge">
<title>Node5&#45;&gt;Node6</title>
<path fill="none" stroke="#191970" d="M1163.1936,-56.3733C1197.3092,-46.6259 1250.0399,-31.56 1286.077,-21.2637"/>
<polygon fill="#191970" stroke="#191970" points="1287.1156,-24.6071 1295.7693,-18.4945 1285.1925,-17.8764 1287.1156,-24.6071"/>
</g>
<!-- Node7&#45;&gt;Node8 -->
<g id="edge8" class="edge">
<title>Node7&#45;&gt;Node8</title>
<path fill="none" stroke="#191970" d="M735.9321,-112.3733C707.3312,-103.0613 663.8212,-88.8953 632.4181,-78.671"/>
<polygon fill="#191970" stroke="#191970" points="633.2743,-75.269 622.682,-75.5011 631.1072,-81.9251 633.2743,-75.269"/>
</g>
<!-- Node9 -->
<g id="node10" class="node">
<title>Node9</title>
<polygon fill="#ffffff" stroke="#bfbfbf" points="671,-.5 671,-19.5 720,-19.5 720,-.5 671,-.5"/>
<text text-anchor="middle" x="695.5" y="-7.5" font-family="Helvetica,sans-Serif" font-size="10.00" fill="#000000">stdint.h</text>
</g>
<!-- Node8&#45;&gt;Node9 -->
<g id="edge9" class="edge">
<title>Node8&#45;&gt;Node9</title>
<path fill="none" stroke="#191970" d="M611.267,-56.2455C627.2095,-47.4928 650.8259,-34.527 668.9989,-24.5496"/>
<polygon fill="#191970" stroke="#191970" points="670.8552,-27.5233 677.9366,-19.6427 667.4863,-21.3873 670.8552,-27.5233"/>
</g>
<!-- Node8&#45;&gt;Node10 -->
<g id="edge10" class="edge">
<title>Node8&#45;&gt;Node10</title>
<path fill="none" stroke="#191970" d="M575.5588,-56.2455C559.46,-47.4928 535.6121,-34.527 517.2609,-24.5496"/>
<polygon fill="#191970" stroke="#191970" points="518.6929,-21.3444 508.2356,-19.6427 515.3493,-27.4942 518.6929,-21.3444"/>
</g>
<!-- Node11&#45;&gt;Node6 -->
<g id="edge12" class="edge">
<title>Node11&#45;&gt;Node6</title>
<path fill="none" stroke="#191970" d="M1447.2298,-56.3733C1423.1034,-47.1822 1386.5638,-33.2624 1359.8123,-23.0713"/>
<polygon fill="#191970" stroke="#191970" points="1361.0313,-19.7904 1350.4404,-19.5011 1358.5393,-26.3318 1361.0313,-19.7904"/>
</g>
<!-- Node12&#45;&gt;Node8 -->
<g id="edge14" class="edge">
<title>Node12&#45;&gt;Node8</title>
<path fill="none" stroke="#191970" d="M455.2083,-112.3733C482.8577,-103.1016 524.8576,-89.0178 555.3166,-78.804"/>
<polygon fill="#191970" stroke="#191970" points="556.7979,-81.9989 565.1663,-75.5011 554.5724,-75.3621 556.7979,-81.9989"/>
</g>
<!-- Node13&#45;&gt;Node6 -->
<g id="edge16" class="edge">
<title>Node13&#45;&gt;Node6</title>
<path fill="none" stroke="#191970" d="M1765.4849,-57.3569C1762.4479,-56.8752 1759.4332,-56.4179 1756.5,-56 1612.95,-35.5485 1441.3199,-19.8235 1365.2063,-13.2963"/>
<polygon fill="#191970" stroke="#191970" points="1365.3741,-9.798 1355.1131,-12.4368 1364.7801,-16.7728 1365.3741,-9.798"/>
</g>
<!-- Node14&#45;&gt;Node5 -->
<g id="edge19" class="edge">
<title>Node14&#45;&gt;Node5</title>
<path fill="none" stroke="#191970" d="M1073.3447,-112.2455C1083.388,-103.9746 1097.9995,-91.9416 1109.8004,-82.2232"/>
<polygon fill="#191970" stroke="#191970" points="1112.2967,-84.7015 1117.791,-75.6427 1107.8467,-79.298 1112.2967,-84.7015"/>
</g>
<!-- Node14&#45;&gt;Node6 -->
<g id="edge18" class="edge">
<title>Node14&#45;&gt;Node6</title>
<path fill="none" stroke="#191970" d="M1040.9694,-112.3793C1016.6492,-99.7192 981.5593,-76.6499 999.5,-56 1018.0589,-34.6385 1202.9798,-18.7997 1285.7767,-12.7219"/>
<polygon fill="#191970" stroke="#191970" points="1286.0973,-16.208 1295.8188,-11.996 1285.5925,-9.2262 1286.0973,-16.208"/>
</g>
<!-- Node15 -->
<g id="node16" class="node">
<title>Node15</title>
<polygon fill="#ffffff" stroke="#bfbfbf" points="1009,-56.5 1009,-75.5 1058,-75.5 1058,-56.5 1009,-56.5"/>
<text text-anchor="middle" x="1033.5" y="-63.5" font-family="Helvetica,sans-Serif" font-size="10.00" fill="#000000">string.h</text>
</g>
<!-- Node14&#45;&gt;Node15 -->
<g id="edge20" class="edge">
<title>Node14&#45;&gt;Node15</title>
<path fill="none" stroke="#191970" d="M1056.6228,-112.2455C1052.8487,-104.6973 1047.5079,-94.0158 1042.9099,-84.8197"/>
<polygon fill="#191970" stroke="#191970" points="1045.924,-83.0217 1038.3213,-75.6427 1039.663,-86.1522 1045.924,-83.0217"/>
</g>
<!-- Node16&#45;&gt;Node6 -->
<g id="edge22" class="edge">
<title>Node16&#45;&gt;Node6</title>
<path fill="none" stroke="#191970" d="M1294.1191,-56.2455C1299.4046,-48.4564 1306.9541,-37.3308 1313.3238,-27.9439"/>
<polygon fill="#191970" stroke="#191970" points="1316.2379,-29.8827 1318.9568,-19.6427 1310.4455,-25.9522 1316.2379,-29.8827"/>
</g>
<!-- Node17&#45;&gt;Node8 -->
<g id="edge25" class="edge">
<title>Node17&#45;&gt;Node8</title>
<path fill="none" stroke="#191970" d="M873.7798,-112.4369C811.4465,-102.1095 712.755,-85.7582 650.6461,-75.468"/>
<polygon fill="#191970" stroke="#191970" points="651.0636,-71.9895 640.6259,-73.8078 649.9193,-78.8954 651.0636,-71.9895"/>
</g>
<!-- Node17&#45;&gt;Node9 -->
<g id="edge24" class="edge">
<title>Node17&#45;&gt;Node9</title>
<path fill="none" stroke="#191970" d="M911.3788,-112.4509C869.5784,-92.6135 773.2027,-46.8758 724.6194,-23.8194"/>
<polygon fill="#191970" stroke="#191970" points="726.1052,-20.6504 715.5703,-19.5249 723.1039,-26.9744 726.1052,-20.6504"/>
</g>
<!-- Node18&#45;&gt;Node8 -->
<g id="edge27" class="edge">
<title>Node18&#45;&gt;Node8</title>
<path fill="none" stroke="#191970" d="M593.5,-112.2455C593.5,-104.9382 593.5,-94.6944 593.5,-85.7046"/>
<polygon fill="#191970" stroke="#191970" points="597.0001,-85.6426 593.5,-75.6427 590.0001,-85.6427 597.0001,-85.6426"/>
</g>
<!-- Node19&#45;&gt;Node6 -->
<g id="edge29" class="edge">
<title>Node19&#45;&gt;Node6</title>
<path fill="none" stroke="#191970" d="M1349.7122,-112.4565C1349.79,-99.4921 1349.1827,-75.6749 1344.5,-56 1342.3056,-46.78 1338.5036,-37.016 1334.8744,-28.8669"/>
<polygon fill="#191970" stroke="#191970" points="1337.926,-27.1315 1330.5039,-19.5709 1331.5912,-30.1098 1337.926,-27.1315"/>
</g>
<!-- Node20&#45;&gt;Node6 -->
<g id="edge32" class="edge">
<title>Node20&#45;&gt;Node6</title>
<path fill="none" stroke="#191970" d="M1445.331,-112.4509C1422.9017,-93.2747 1372.1643,-49.8962 1344.4468,-26.1988"/>
<polygon fill="#191970" stroke="#191970" points="1346.5159,-23.363 1336.6407,-19.5249 1341.9671,-28.6835 1346.5159,-23.363"/>
</g>
<!-- Node22 -->
<g id="node23" class="node">
<title>Node22</title>
<g id="a_node23"><a xlink:href="pthread_8h.html" target="_top" xlink:title="ODP Linux helper for pthreads. ">
<polygon fill="#ffffff" stroke="#000000" points="1534,-56.5 1534,-75.5 1591,-75.5 1591,-56.5 1534,-56.5"/>
<text text-anchor="middle" x="1562.5" y="-63.5" font-family="Helvetica,sans-Serif" font-size="10.00" fill="#000000">pthread.h</text>
</a>
</g>
</g>
<!-- Node21&#45;&gt;Node22 -->
<g id="edge35" class="edge">
<title>Node21&#45;&gt;Node22</title>
<path fill="none" stroke="#191970" d="M1595.2206,-112.2455C1587.3183,-104.4564 1577.8192,-93.3308 1570.8925,-83.9439"/>
<polygon fill="#191970" stroke="#191970" points="1573.7301,-81.8934 1565.1756,-75.6427 1567.9649,-85.8638 1573.7301,-81.8934"/>
</g>
<!-- Node23 -->
<g id="node24" class="node">
<title>Node23</title>
<polygon fill="#ffffff" stroke="#bfbfbf" points="1609.5,-56.5 1609.5,-75.5 1661.5,-75.5 1661.5,-56.5 1609.5,-56.5"/>
<text text-anchor="middle" x="1635.5" y="-63.5" font-family="Helvetica,sans-Serif" font-size="10.00" fill="#000000">getopt.h</text>
</g>
<!-- Node21&#45;&gt;Node23 -->
<g id="edge37" class="edge">
<title>Node21&#45;&gt;Node23</title>
<path fill="none" stroke="#191970" d="M1613.203,-112.2455C1616.8424,-104.6973 1621.9924,-94.0158 1626.4262,-84.8197"/>
<polygon fill="#191970" stroke="#191970" points="1629.6605,-86.1704 1630.8509,-75.6427 1623.3551,-83.1303 1629.6605,-86.1704"/>
</g>
<!-- Node24 -->
<g id="node25" class="node">
<title>Node24</title>
<polygon fill="#ffffff" stroke="#bfbfbf" points="1679.5,-56.5 1679.5,-75.5 1747.5,-75.5 1747.5,-56.5 1679.5,-56.5"/>
<text text-anchor="middle" x="1713.5" y="-63.5" font-family="Helvetica,sans-Serif" font-size="10.00" fill="#000000">sys/types.h</text>
</g>
<!-- Node21&#45;&gt;Node24 -->
<g id="edge38" class="edge">
<title>Node21&#45;&gt;Node24</title>
<path fill="none" stroke="#191970" d="M1626.7896,-112.2455C1643.2762,-103.4527 1667.7352,-90.4079 1686.4765,-80.4125"/>
<polygon fill="#191970" stroke="#191970" points="1688.2435,-83.4368 1695.42,-75.6427 1684.9494,-77.2604 1688.2435,-83.4368"/>
</g>
<!-- Node22&#45;&gt;Node21 -->
<g id="edge36" class="edge">
<title>Node22&#45;&gt;Node21</title>
<path fill="none" stroke="#191970" d="M1575.6659,-75.6427C1583.5528,-83.3997 1593.0564,-94.5176 1600.0077,-103.9209"/>
<polygon fill="#191970" stroke="#191970" points="1597.1929,-106.0043 1605.7543,-112.2455 1602.9536,-102.0276 1597.1929,-106.0043"/>
</g>
<!-- Node25&#45;&gt;Node5 -->
<g id="edge41" class="edge">
<title>Node25&#45;&gt;Node5</title>
<path fill="none" stroke="#191970" d="M1189.7844,-112.2455C1178.898,-103.8943 1163.0117,-91.7076 1150.28,-81.9408"/>
<polygon fill="#191970" stroke="#191970" points="1152.1346,-78.9523 1142.0699,-75.6427 1147.8739,-84.5063 1152.1346,-78.9523"/>
</g>
<!-- Node25&#45;&gt;Node6 -->
<g id="edge40" class="edge">
<title>Node25&#45;&gt;Node6</title>
<path fill="none" stroke="#191970" d="M1204.3547,-112.2947C1207.4876,-98.2666 1215.0564,-72.231 1230.5,-56 1245.6668,-40.0599 1267.5049,-28.9532 1286.4198,-21.6524"/>
<polygon fill="#191970" stroke="#191970" points="1287.7888,-24.8789 1295.9938,-18.176 1285.3997,-18.2993 1287.7888,-24.8789"/>
</g>
</g>
</svg>
